<?xml version="1.0" standalone="no"?>
<!DOCTYPE svg PUBLIC "-//W3C//DTD SVG 1.1//EN" "http://www.w3.org/Graphics/SVG/1.1/DTD/svg11.dtd" >
<svg xmlns="http://www.w3.org/2000/svg" xmlns:xlink="http://www.w3.org/1999/xlink" version="1.1">
<metadata>
Created by FontForge 20150824 at Wed Mar  9 04:11:06 2016
 By Everything Fonts
Copyright (c) Mullen, 2015. All rights reserved.
</metadata>
<defs>
<font id="AcuraBespokeBook" horiz-adv-x="400" >
  <font-face 
    font-family="AcuraBespokeBook"
    font-weight="400"
    font-stretch="normal"
    units-per-em="1000"
    panose-1="2 0 0 0 0 0 0 0 0 0"
    ascent="750"
    descent="-250"
    x-height="500"
    cap-height="700"
    bbox="-70 -215 2184 940"
    underline-thickness="50"
    underline-position="-150"
    unicode-range="U+0020-2248"
  />
<missing-glyph horiz-adv-x="354" 
 />
    <glyph glyph-name=".notdef" horiz-adv-x="354" 
 />
    <glyph glyph-name=".null" horiz-adv-x="0" 
 />
    <glyph glyph-name="nonmarkingreturn" horiz-adv-x="333" 
 />
    <glyph glyph-name="space" unicode=" " horiz-adv-x="300" 
 />
    <glyph glyph-name="exclam" unicode="!" horiz-adv-x="298" 
d="M177 700l-6 -496h-46l-5 496h57zM149 74q18 0 29 -12t11 -30q0 -17 -11 -29t-29 -12t-29 12t-11 29q0 18 11 30t29 12z" />
    <glyph glyph-name="quotedbl" unicode="&#x22;" horiz-adv-x="233" 
d="M191 700l-6 -209h-44l-6 209h56zM97 700l-6 -209h-44l-5 209h55z" />
    <glyph glyph-name="numbersign" unicode="#" horiz-adv-x="709" 
d="M120 471h138l69 229h44l-67 -229h163l69 229h45l-68 -229h149l-15 -45h-147l-45 -152h148l-14 -46h-147l-66 -228h-50l68 228h-161l-67 -228h-49l68 228h-138l14 46h137l46 152h-139zM291 426l-45 -152h162l46 152h-163z" />
    <glyph glyph-name="dollar" unicode="$" horiz-adv-x="646" 
d="M508 543h-51q0 47 -27 78.5t-74 39.5v-279q95 -44 137.5 -88t42.5 -124t-50.5 -127.5t-129.5 -55.5v-79h-51v78q-84 5 -136.5 55.5t-52.5 129.5h51q0 -56 38.5 -93t99.5 -43v314q-39 19 -62.5 33t-49.5 37.5t-38 54.5t-12 71q0 70 44.5 116t117.5 51v79h51v-81
q71 -8 111.5 -52.5t40.5 -114.5zM194 545q0 -49 28.5 -80.5t82.5 -58.5v257q-50 -4 -80.5 -37t-30.5 -81zM485 170q0 54 -31 87.5t-98 67.5v-290q57 8 93 43t36 92z" />
    <glyph glyph-name="percent" unicode="%" horiz-adv-x="700" 
d="M24 540q0 76 39 125.5t102 49.5q62 0 101.5 -49.5t39.5 -125.5q0 -75 -39 -123.5t-102 -48.5t-102 48.5t-39 123.5zM46 0l557 700h55l-552 -700h-60zM70 540q0 -55 26 -91.5t69 -36.5t69.5 36.5t26.5 91.5t-26.5 93t-69.5 38q-42 0 -68.5 -38t-26.5 -93zM398 155
q0 76 39 125.5t102 49.5q62 0 101.5 -49.5t39.5 -125.5q0 -75 -39 -123.5t-102 -48.5t-102 48.5t-39 123.5zM444 155q0 -55 26 -91.5t69 -36.5t69.5 36.5t26.5 91.5t-26.5 93t-69.5 38q-42 0 -68.5 -38t-26.5 -93z" />
    <glyph glyph-name="ampersand" unicode="&#x26;" horiz-adv-x="743" 
d="M324 427l-175 223v50h413v-50h-349l507 -650h-60l-99 126q-25 -63 -82 -102.5t-128 -39.5q-94 0 -159.5 65.5t-65.5 158.5q0 86 57 149t141 70zM177 208q0 -72 51.5 -123t123.5 -51q64 0 111 37t63 98l-166 213q-76 0 -129.5 -50.5t-53.5 -123.5z" />
    <glyph glyph-name="quotesingle" unicode="'" horiz-adv-x="139" 
d="M97 700l-6 -209h-44l-5 209h55z" />
    <glyph glyph-name="parenleft" unicode="(" horiz-adv-x="314" 
d="M77 349q0 112 39.5 227.5t109.5 197.5h53q-153 -192 -153 -424t153 -424h-53q-70 82 -109.5 197t-39.5 226z" />
    <glyph glyph-name="parenright" unicode=")" horiz-adv-x="314" 
d="M237 350q0 -112 -39.5 -227t-109.5 -197h-53q153 192 153 424t-153 424h53q70 -82 109.5 -197.5t39.5 -226.5z" />
    <glyph glyph-name="asterisk" unicode="*" horiz-adv-x="404" 
d="M138 707l65 -110l65 110l36 -22l-65 -110h119v-40h-118l64 -108l-35 -22l-66 110l-65 -110l-36 22l64 107h-120v41h121l-65 110z" />
    <glyph glyph-name="plus" unicode="+" horiz-adv-x="764" 
d="M410 616v-241h234v-50h-234v-245h-54v245h-236v50h236v241h54z" />
    <glyph glyph-name="comma" unicode="," horiz-adv-x="252" 
d="M96 -120h-33l57 197h68z" />
    <glyph glyph-name="hyphen" unicode="-" horiz-adv-x="588" 
d="M65 375h458v-50h-458v50z" />
    <glyph glyph-name="period" unicode="." horiz-adv-x="262" 
d="M130 74q18 0 29 -12t11 -30q0 -17 -11 -29t-29 -12t-29 12t-11 29q0 18 11 30t29 12z" />
    <glyph glyph-name="slash" unicode="/" horiz-adv-x="721" 
d="M727 775l-669 -850h-64l671 850h62z" />
    <glyph glyph-name="zero" unicode="0" horiz-adv-x="590" 
d="M547 349q0 -162 -67.5 -263.5t-184.5 -101.5t-184.5 101.5t-67.5 263.5q0 163 67 264.5t185 101.5t185 -101.5t67 -264.5zM96 350q0 -143 52 -230t147 -87t147 87t52 230q0 142 -52 228.5t-147 86.5t-147 -86.5t-52 -228.5z" />
    <glyph glyph-name="one" unicode="1" horiz-adv-x="261" 
d="M173 0h-51v650h-131l39 50h143v-700z" />
    <glyph glyph-name="two" unicode="2" horiz-adv-x="583" 
d="M450 500q0 72 -48.5 119t-123.5 47q-70 0 -119.5 -45.5t-55.5 -114.5h-51q7 88 71 148.5t157 60.5q95 0 158 -61.5t63 -153.5q0 -60 -32 -118.5t-124 -141.5l-204 -190h365v-50h-436v50l248 233q79 74 105.5 123.5t26.5 93.5z" />
    <glyph glyph-name="three" unicode="3" horiz-adv-x="571" 
d="M86 650v50h405v-50l-188 -219q89 -8 146.5 -73.5t57.5 -148.5q0 -94 -66.5 -159.5t-161.5 -65.5q-93 0 -157 61t-71 149h51q6 -69 56.5 -114.5t119.5 -45.5q74 0 126 51t52 124q0 71 -51 122t-124 51h-44v49l188 219h-339z" />
    <glyph glyph-name="four" unicode="4" horiz-adv-x="587" 
d="M375 0v188h-367v45l365 467h52v-462h141v-50h-141v-188h-50zM375 624l-302 -387h302v387z" />
    <glyph glyph-name="five" unicode="5" horiz-adv-x="583" 
d="M276 414q-91 0 -148 -65h-51l56 351h351v-50h-309l-38 -232q56 46 140 46q105 0 174.5 -71t69.5 -170q0 -100 -70 -169t-170 -69q-94 0 -161 60t-78 149h51q12 -71 64 -115t122 -44q79 0 134.5 54t55.5 134t-56.5 135.5t-136.5 55.5z" />
    <glyph glyph-name="six" unicode="6" horiz-adv-x="575" 
d="M39 231q0 88 62 165l244 304h64l-186 -233q31 13 66 13q106 0 177.5 -74t71.5 -175q0 -104 -73 -175.5t-176 -71.5t-176.5 71.5t-73.5 175.5zM90 231q0 -83 58 -139.5t140 -56.5t140 56.5t58 139.5q0 82 -58 139.5t-140 58.5t-140 -57t-58 -141z" />
    <glyph glyph-name="seven" unicode="7" horiz-adv-x="525" 
d="M134 0h-60l366 650h-385v50h444v-49z" />
    <glyph glyph-name="eight" unicode="8" horiz-adv-x="547" 
d="M43 193q0 63 38.5 114.5t99.5 74.5q-47 23 -74 64.5t-27 90.5q0 75 55.5 126.5t138.5 51.5q82 0 137 -51.5t55 -126.5q0 -48 -26.5 -90t-72.5 -65q61 -23 99 -74.5t38 -114.5q0 -90 -67.5 -149.5t-162.5 -59.5q-96 0 -163.5 59.5t-67.5 149.5zM131 537q0 -54 41.5 -93.5
t101.5 -39.5t100.5 39.5t40.5 93.5q0 55 -40 92.5t-101 37.5q-62 0 -102.5 -37.5t-40.5 -92.5zM93 193q0 -68 53.5 -114t127.5 -46t126.5 46t52.5 114q0 67 -51.5 113.5t-127.5 46.5t-128.5 -46.5t-52.5 -113.5z" />
    <glyph glyph-name="nine" unicode="9" horiz-adv-x="575" 
d="M536 469q0 -86 -63 -165l-244 -304h-63l186 232q-33 -12 -66 -12q-107 0 -178 74t-71 175q0 103 72.5 174.5t176.5 71.5q103 0 176.5 -71.5t73.5 -174.5zM484 469q0 83 -57.5 139.5t-139.5 56.5q-83 0 -140.5 -56.5t-57.5 -139.5q0 -82 58 -139.5t139 -58.5
q83 -1 140.5 57t57.5 141z" />
    <glyph glyph-name="colon" unicode=":" horiz-adv-x="289" 
d="M144 392q18 0 29 -12t11 -30q0 -17 -11 -29t-29 -12t-29 12t-11 29q0 18 11 30t29 12zM144 74q18 0 29 -12t11 -30q0 -17 -11 -29t-29 -12t-29 12t-11 29q0 18 11 30t29 12z" />
    <glyph glyph-name="semicolon" unicode=";" horiz-adv-x="277" 
d="M152 392q18 0 29 -12t11 -30q0 -17 -11 -29t-29 -12t-29 12t-11 29q0 18 11 30t29 12zM96 -120h-33l57 197h68z" />
    <glyph glyph-name="less" unicode="&#x3c;" horiz-adv-x="765" 
d="M640 38l-515 292v40l515 280v-60l-448 -240l448 -249v-63z" />
    <glyph glyph-name="equal" unicode="=" horiz-adv-x="772" 
d="M120 471h532v-51h-532v51zM120 279h532v-51h-532v51z" />
    <glyph glyph-name="greater" unicode="&#x3e;" horiz-adv-x="765" 
d="M640 330l-515 -292v63l448 249l-448 240v60l515 -280v-40z" />
    <glyph glyph-name="question" unicode="?" horiz-adv-x="574" 
d="M447 506q0 63 -49 110t-119 47q-68 0 -117.5 -49.5t-49.5 -117.5h-51q0 89 64 154t154 65q91 0 155 -61.5t64 -148.5q0 -114 -93 -169q-7 -4 -27 -14.5t-31 -17.5t-25 -18t-20.5 -23.5t-6.5 -27.5v-63h-51v65q0 35 15.5 57t48.5 41l67 39q40 23 56 53.5t16 78.5zM271 74
q18 0 29 -12t11 -30q0 -17 -11 -29t-29 -12t-29 12t-11 29q0 18 11 30t29 12z" />
    <glyph glyph-name="at" unicode="@" horiz-adv-x="843" 
d="M526 285l-102 248l-78 -192h99l16 -45h-133l-43 -107h-50l166 399h49l120 -283q16 -37 33.5 -52t47.5 -15q44 0 70 36.5t26 97.5q0 138 -93 220.5t-242 82.5q-132 0 -224 -95t-92 -232q0 -138 96 -230.5t230 -92.5q93 0 157 38l21 -38q-82 -45 -178 -45
q-153 0 -262 105.5t-109 262.5q0 158 102.5 265t258.5 107q171 0 276 -92.5t105 -255.5q0 -76 -39.5 -127.5t-106.5 -51.5q-84 0 -121 92z" />
    <glyph glyph-name="A" unicode="A" horiz-adv-x="595" 
d="M361 244h-224l-98 -244h-51l285 700h47l287 -700h-54l-259 634l-137 -341h185z" />
    <glyph glyph-name="B" unicode="B" horiz-adv-x="530" 
d="M462 512q0 -49 -23 -90.5t-63 -65.5q50 -22 80 -67t30 -102q0 -77 -55 -132t-133 -55h-212v700h188q78 0 133 -55t55 -133zM274 650h-138v-275h143q53 0 93 40.5t40 96.5t-40.5 97t-97.5 41zM298 325h-162v-275h162q57 0 97.5 40.5t40.5 96.5q0 57 -40.5 97.5t-97.5 40.5
z" />
    <glyph glyph-name="C" unicode="C" horiz-adv-x="714" 
d="M418 -16q-150 0 -257.5 108t-107.5 258t107.5 257.5t257.5 107.5q74 0 131 -21.5t116 -68.5l-29 -39q-64 47 -111 63t-107 16q-130 0 -222.5 -92.5t-92.5 -222.5t92.5 -223t222.5 -93q60 0 107 16t111 63l29 -39q-58 -47 -115.5 -68.5t-131.5 -21.5z" />
    <glyph glyph-name="D" unicode="D" horiz-adv-x="658" 
d="M86 700h185q143 0 238.5 -102t95.5 -248t-95.5 -248t-238.5 -102h-185v700zM136 50h135q122 0 202.5 86.5t80.5 213.5q0 125 -80.5 212.5t-202.5 87.5h-135v-600z" />
    <glyph glyph-name="E" unicode="E" horiz-adv-x="534" 
d="M86 700h390v-50h-340v-275h340v-50h-340v-275h340v-50h-390v700z" />
    <glyph glyph-name="F" unicode="F" horiz-adv-x="520" 
d="M86 700h390v-50h-340v-275h340v-50h-340v-325h-50v700z" />
    <glyph glyph-name="G" unicode="G" horiz-adv-x="820" 
d="M421 -16q-154 0 -261 107.5t-107 258.5q0 150 107 257.5t257 107.5t249 -89l-31 -35q-61 46 -108 60t-108 14q-131 0 -223.5 -92.5t-92.5 -222.5q0 -132 91.5 -224t226.5 -92q108 0 195 68.5t109 183.5h-366v50h424q-5 -147 -109 -249.5t-253 -102.5z" />
    <glyph glyph-name="H" unicode="H" horiz-adv-x="673" 
d="M588 700v-700h-50v325h-402v-325h-50v700h50v-325h402v325h50z" />
    <glyph glyph-name="I" unicode="I" horiz-adv-x="224" 
d="M137 700v-700h-50v700h50z" />
    <glyph glyph-name="J" unicode="J" horiz-adv-x="472" 
d="M0 164h50q5 -56 46 -94t98 -38q60 0 103 42t43 103v523h50v-523q0 -83 -57 -139t-139 -56q-76 0 -132.5 53t-61.5 129z" />
    <glyph glyph-name="K" unicode="K" horiz-adv-x="452" 
d="M136 700v-325l257 325h60l-278 -350l278 -350h-62l-255 320v-320h-50v700h50z" />
    <glyph glyph-name="L" unicode="L" horiz-adv-x="491" 
d="M136 50h340v-50h-390v700h50v-650z" />
    <glyph glyph-name="M" unicode="M" horiz-adv-x="917" 
d="M484 214h-53l-295 403v-617h-50v700h50l322 -438l323 438h50v-700h-51v617z" />
    <glyph glyph-name="N" unicode="N" horiz-adv-x="756" 
d="M622 0l-486 620v-620h-50v700h50l486 -622v622h49v-700h-49z" />
    <glyph glyph-name="O" unicode="O" horiz-adv-x="837" 
d="M53 350q0 150 107.5 257.5t257.5 107.5t258 -107.5t108 -257.5t-108 -258t-258 -108t-257.5 108t-107.5 258zM103 350q0 -130 92.5 -223t222.5 -93t223 93t93 223t-93 222.5t-223 92.5t-222.5 -92.5t-92.5 -222.5z" />
    <glyph glyph-name="P" unicode="P" horiz-adv-x="572" 
d="M86 0v700h279q78 0 133 -57t55 -139q0 -80 -55 -137t-133 -57h-229v-310h-50zM365 650h-229v-290h229q56 0 97 42.5t41 101.5q0 60 -41 103t-97 43z" />
    <glyph glyph-name="Q" unicode="Q" horiz-adv-x="830" 
d="M53 350q0 150 107.5 257.5t257.5 107.5t258 -107.5t108 -257.5q0 -139 -94 -244l84 -106h-61l-58 72q-102 -88 -237 -88q-150 0 -257.5 108t-107.5 258zM103 350q0 -130 92.5 -223t222.5 -93q118 0 206 77l-101 128h62l74 -94q75 88 75 205q0 130 -93 222.5t-223 92.5
t-222.5 -92.5t-92.5 -222.5z" />
    <glyph glyph-name="R" unicode="R" horiz-adv-x="603" 
d="M376 326h-79l225 -326h-59l-257 373h172q57 0 95 40t38 97q0 58 -40.5 99t-97.5 41h-237v-650h-50v700h287q79 0 133.5 -55t54.5 -135t-53 -132t-132 -52z" />
    <glyph glyph-name="S" unicode="S" horiz-adv-x="525" 
d="M444 543h-51q0 56 -36 89t-98 33q-58 0 -93.5 -34t-35.5 -86q0 -32 11.5 -56.5t37 -44t47 -31t59.5 -28.5q99 -44 143 -88.5t44 -126.5q0 -88 -60.5 -136.5t-150.5 -48.5q-91 0 -149.5 51t-58.5 135h51q0 -61 45 -99.5t114 -38.5q68 0 113 36t45 101q0 59 -36.5 94.5
t-121.5 74.5q-47 22 -70.5 35t-55 38t-45 57.5t-13.5 75.5q0 74 50 121t130 47q86 0 135.5 -45.5t49.5 -124.5z" />
    <glyph glyph-name="T" unicode="T" horiz-adv-x="542" 
d="M9 700h524v-50h-237v-650h-50v650h-237v50z" />
    <glyph glyph-name="U" unicode="U" horiz-adv-x="645" 
d="M83 224v476h51v-477q0 -77 55.5 -133t132.5 -56q78 0 133.5 56t55.5 133v477h51v-477q0 -100 -70 -169.5t-170 -69.5q-99 0 -169 70t-70 170z" />
    <glyph glyph-name="V" unicode="V" horiz-adv-x="600" 
d="M302 61l257 639h52l-285 -700h-51l-287 700h53z" />
    <glyph glyph-name="W" unicode="W" horiz-adv-x="958" 
d="M711 70l202 630h52l-230 -700h-51l-205 621l-203 -621h-51l-232 700h53l206 -630l202 630h52z" />
    <glyph glyph-name="X" unicode="X" horiz-adv-x="582" 
d="M578 700l-256 -350l256 -350h-63l-224 306l-225 -306h-62l255 350l-255 350h63l224 -306l223 306h64z" />
    <glyph glyph-name="Y" unicode="Y" horiz-adv-x="624" 
d="M622 700l-286 -359v-341h-50v341l-285 359h63l247 -311l248 311h63z" />
    <glyph glyph-name="Z" unicode="Z" horiz-adv-x="508" 
d="M87 50h395v-50h-457v46l397 604h-395v50h456v-48z" />
    <glyph glyph-name="bracketleft" unicode="[" horiz-adv-x="268" 
d="M88 775h146v-50h-97v-750h97v-50h-146v850z" />
    <glyph glyph-name="backslash" unicode="\" horiz-adv-x="721" 
d="M662 -75l-668 850h62l671 -850h-65z" />
    <glyph glyph-name="bracketright" unicode="]" horiz-adv-x="268" 
d="M34 775h146v-850h-146v50h96v750h-96v50z" />
    <glyph glyph-name="asciicircum" unicode="^" horiz-adv-x="854" 
d="M596 307l-169 343l-170 -343h-55l200 403h49l200 -403h-55z" />
    <glyph glyph-name="underscore" unicode="_" horiz-adv-x="492" 
d="M496 -113h-500v38h500v-38z" />
    <glyph glyph-name="grave" unicode="`" horiz-adv-x="392" 
d="M279 763h-45l-123 140h67z" />
    <glyph glyph-name="a" unicode="a" horiz-adv-x="540" 
d="M241 -15q-81 0 -136 44t-55 116t54 117.5t142 45.5q95 0 171 -42v68q0 68 -43 102t-107 34q-96 0 -155 -71l-35 33q69 83 192 83q88 0 142.5 -46.5t54.5 -128.5v-340h-49v67q-30 -41 -78 -61.5t-98 -20.5zM249 30q69 0 118.5 43t49.5 94v43q-26 25 -71 39t-91 14
q-69 0 -110.5 -30t-41.5 -84q0 -53 42 -86t104 -33z" />
    <glyph glyph-name="b" unicode="b" horiz-adv-x="634" 
d="M80 0v700h49v-304q26 50 82 84.5t121 34.5q109 0 182 -74.5t73 -190.5t-73 -190.5t-182 -74.5q-65 0 -119 30.5t-84 82.5v-98h-49zM534 250q0 94 -57.5 155.5t-143.5 61.5q-90 0 -147 -62.5t-57 -154.5t57 -154.5t147 -62.5q87 0 144 60.5t57 156.5z" />
    <glyph glyph-name="c" unicode="c" horiz-adv-x="526" 
d="M507 434l-30 -35q-70 68 -164 68q-93 0 -154 -63t-61 -154t61 -154t154 -63t164 69l33 -34q-83 -83 -199 -83q-112 0 -189 77.5t-77 187.5t77 187.5t189 77.5q115 0 196 -81z" />
    <glyph glyph-name="d" unicode="d" horiz-adv-x="634" 
d="M554 700v-700h-49v104q-26 -51 -82 -85t-120 -34q-109 0 -182.5 74.5t-73.5 190.5t73.5 190.5t182.5 74.5q64 0 118 -31t84 -82v298h49zM100 250q0 -94 58 -155.5t144 -61.5q89 0 146 62.5t57 154.5t-57 154.5t-146 62.5q-87 0 -144.5 -60.5t-57.5 -156.5z" />
    <glyph glyph-name="e" unicode="e" horiz-adv-x="566" 
d="M525 240h-426q5 -87 61 -147t143 -60q45 0 90.5 16t75.5 45l31 -35q-35 -34 -89.5 -54t-107.5 -20q-110 0 -183 77.5t-73 187.5q0 117 79 196q69 69 177 69q92 0 157.5 -64.5t65.5 -181.5q0 -19 -1 -29zM476 288q-1 85 -53 133t-126 48q-73 0 -129 -49t-66 -132h374z" />
    <glyph glyph-name="f" unicode="f" horiz-adv-x="329" 
d="M323 693v-46q-33 15 -77 15q-53 0 -82 -29q-30 -30 -30 -106v-27h184v-46h-184v-454h-49v454h-71v46h71v26q0 83 40.5 131.5t123.5 48.5q37 0 74 -13z" />
    <glyph glyph-name="g" unicode="g" horiz-adv-x="534" 
d="M35 -68q0 39 28 73t69 48q-36 23 -36 62q0 51 53 77q-74 51 -74 146q0 78 53 128t134 50q42 0 82 -16h173v-47h-41q-45 0 -69 2q43 -48 43 -117q0 -78 -53 -128t-135 -50q-34 0 -64 9q-51 -20 -51 -56q0 -15 10 -25q16 -15 46 -15q9 0 29.5 1.5t30.5 1.5q100 0 168.5 -36
t68.5 -107q0 -69 -68 -108.5t-167 -39.5q-100 0 -165 38t-65 109zM400 338q0 56 -38 95t-99 39t-99 -39t-38 -95q0 -57 38 -96t99 -39t99 39t38 96zM86 -67q0 -50 50 -76t129 -26t131 26.5t52 75.5q0 48 -51.5 72t-131.5 24t-129.5 -24t-49.5 -72z" />
    <glyph glyph-name="h" unicode="h" horiz-adv-x="582" 
d="M314 515q90 0 142 -46t52 -129v-340h-49v334q0 69 -40.5 102t-106.5 33q-74 0 -129 -49.5t-55 -127.5v-292h-49v700h49v-283q25 44 73 71t113 27z" />
    <glyph glyph-name="i" unicode="i" horiz-adv-x="204" 
d="M65 674q0 15 10 25.5t26 10.5t26 -10.5t10 -25.5t-10 -25.5t-26 -10.5t-26 10.5t-10 25.5zM77 0v500h49v-500h-49z" />
    <glyph glyph-name="j" unicode="j" horiz-adv-x="197" 
d="M62 674q0 15 10 25.5t26 10.5t26 -10.5t10 -25.5t-10 -25.5t-26 -10.5t-26 10.5t-10 25.5zM-70 -206v47q22 -9 60 -9q84 0 84 108v560h49v-565q0 -150 -133 -150q-35 0 -60 9z" />
    <glyph glyph-name="k" unicode="k" horiz-adv-x="449" 
d="M128 270v-270h-49v700h49v-409l224 209h67l-235 -218l271 -282h-68z" />
    <glyph glyph-name="l" unicode="l" horiz-adv-x="207" 
d="M79 0v700h49v-700h-49z" />
    <glyph glyph-name="m" unicode="m" horiz-adv-x="878" 
d="M79 0v500h49v-84q22 46 64 72.5t100 26.5q133 0 165 -107q21 49 67 78t106 29q83 0 128.5 -44.5t45.5 -127.5v-343h-49v348q0 120 -128 120q-64 0 -112.5 -49.5t-48.5 -126.5v-292h-49v348q0 120 -128 120q-62 0 -111.5 -48.5t-49.5 -122.5v-297h-49z" />
    <glyph glyph-name="n" unicode="n" horiz-adv-x="582" 
d="M508 340v-340h-49v334q0 69 -40.5 102t-106.5 33q-74 0 -129 -49.5t-55 -127.5v-292h-49v500h49v-83q25 44 73 71t113 27q90 0 142 -46t52 -129z" />
    <glyph glyph-name="o" unicode="o" horiz-adv-x="618" 
d="M46 250q0 110 76 187.5t186 77.5q111 0 187.5 -77.5t76.5 -187.5t-76.5 -187.5t-187.5 -77.5q-110 0 -186 77.5t-76 187.5zM98 250q0 -91 60 -154t150 -63q92 0 152 63t60 154t-60 154t-152 63q-90 0 -150 -63t-60 -154z" />
    <glyph glyph-name="p" unicode="p" horiz-adv-x="634" 
d="M80 -200v700h49v-104q26 50 82 84.5t121 34.5q109 0 182 -74.5t73 -190.5t-73 -190.5t-182 -74.5q-65 0 -119 30.5t-84 82.5v-298h-49zM534 250q0 94 -57.5 155.5t-143.5 61.5q-90 0 -147 -62.5t-57 -154.5t57 -154.5t147 -62.5q87 0 144 60.5t57 156.5z" />
    <glyph glyph-name="q" unicode="q" horiz-adv-x="634" 
d="M554 500v-700h-49v304q-26 -51 -82 -85t-120 -34q-109 0 -182.5 74.5t-73.5 190.5t73.5 190.5t182.5 74.5q64 0 118 -31t84 -82v98h49zM100 250q0 -94 58 -155.5t144 -61.5q89 0 146 62.5t57 154.5t-57 154.5t-146 62.5q-87 0 -144.5 -60.5t-57.5 -156.5z" />
    <glyph glyph-name="r" unicode="r" horiz-adv-x="328" 
d="M79 0v500h49v-92q21 44 60.5 70t90.5 26q17 0 35 -3v-48q-15 3 -29 3q-65 0 -111 -49t-46 -118v-289h-49z" />
    <glyph glyph-name="s" unicode="s" horiz-adv-x="456" 
d="M389 375h-49q0 41 -31.5 68t-84.5 27q-49 0 -78.5 -23t-29.5 -63q0 -41 30 -63t96 -39q87 -23 127.5 -56.5t40.5 -95.5q0 -69 -54.5 -107t-129.5 -38q-77 0 -128 42.5t-51 109.5h52q0 -42 29 -71q36 -36 100 -36q57 0 94.5 26.5t37.5 71.5q0 42 -28.5 63.5t-104.5 44.5
q-81 24 -121 54.5t-40 91.5q0 57 43.5 95t114.5 38q77 0 121 -38t44 -102z" />
    <glyph glyph-name="t" unicode="t" horiz-adv-x="333" 
d="M14 454v46h72v124h49v-124h173v-46h-173v-333q0 -42 26 -61.5t63 -19.5q47 0 89 23v-48q-38 -21 -91 -21q-58 0 -97 28.5t-39 91.5v340h-72z" />
    <glyph glyph-name="u" unicode="u" horiz-adv-x="582" 
d="M74 160v340h49v-334q0 -69 40.5 -102t106.5 -33q74 0 129 49.5t55 127.5v292h49v-500h-49v83q-25 -44 -73 -71t-113 -27q-90 0 -142 46t-52 129z" />
    <glyph glyph-name="v" unicode="v" horiz-adv-x="481" 
d="M11 500h53l178 -440l176 440h52l-202 -500h-53z" />
    <glyph glyph-name="w" unicode="w" horiz-adv-x="742" 
d="M344 500h54l137 -428l138 428h52l-163 -500h-53l-138 423l-138 -423h-53l-163 500h52l137 -428z" />
    <glyph glyph-name="x" unicode="x" horiz-adv-x="454" 
d="M433 500l-178 -243l189 -257h-59l-158 218l-158 -218h-59l188 257l-176 243h57l148 -206l149 206h57z" />
    <glyph glyph-name="y" unicode="y" horiz-adv-x="477" 
d="M214 5h-1l-202 495h53l176 -435l174 435h52l-283 -700h-53z" />
    <glyph glyph-name="z" unicode="z" horiz-adv-x="431" 
d="M101 46h287v-46h-346v42l288 412h-288v46h347v-43z" />
    <glyph glyph-name="braceleft" unicode="{" horiz-adv-x="288" 
d="M51 372q26 0 41.5 20t15.5 51v229q0 46 22.5 74.5t64.5 28.5h59v-50h-52q-22 0 -33 -14t-11 -35v-219q0 -83 -51 -106q51 -28 51 -109v-218q0 -21 11 -35t33 -14h52v-50h-59q-42 0 -64.5 28t-22.5 75v245q0 26 -17 40.5t-40 15.5v43z" />
    <glyph glyph-name="bar" unicode="|" horiz-adv-x="480" 
d="M265 775v-850h-50v850h50z" />
    <glyph glyph-name="braceright" unicode="}" horiz-adv-x="288" 
d="M237 372v-43q-23 -1 -40 -15.5t-17 -40.5v-263q0 -38 -25.5 -61.5t-61.5 -23.5h-59v50h52q44 0 44 49v218q0 79 51 109q-51 20 -51 69v256q0 21 -11 35t-33 14h-52v50h59q36 0 61.5 -23.5t25.5 -61.5v-265q0 -24 17.5 -38.5t39.5 -14.5z" />
    <glyph glyph-name="asciitilde" unicode="~" horiz-adv-x="607" 
d="M114 291l-31 28q51 89 123 89q35 0 119 -38l29 -13q33 -15 57 -15q18 0 34.5 11t25.5 23t22 32l32 -31q-53 -83 -112 -83q-32 0 -79 21l-32 14q-6 2 -19 8t-20.5 9t-18 7t-20.5 5.5t-19 1.5q-29 0 -48.5 -16t-42.5 -53z" />
    <glyph glyph-name="exclamdown" unicode="&#xa1;" horiz-adv-x="298" 
d="M147 626q-18 0 -29 12t-11 30q0 17 11 29t29 12t29 -12t11 -29q0 -18 -11 -30t-29 -12zM119 0l6 496h46l5 -496h-57z" />
    <glyph glyph-name="cent" unicode="&#xa2;" horiz-adv-x="600" 
d="M486 163q-64 -55 -161 -59v-104h-50v107q-86 16 -143.5 84.5t-57.5 157.5t57.5 157t143.5 84v110h50v-105q94 -6 162 -60l-31 -38q-69 49 -131 49v-394q74 3 131 49zM124 349q0 -69 42.5 -122.5t108.5 -68.5v382q-66 -15 -108.5 -68.5t-42.5 -122.5z" />
    <glyph glyph-name="sterling" unicode="&#xa3;" horiz-adv-x="652" 
d="M111 325v50h54q-43 68 -43 131q0 87 57.5 148t151.5 61q80 0 138 -48.5t71 -130.5h-54q-12 61 -53.5 96t-103.5 35q-68 0 -110 -46.5t-42 -115.5q0 -62 48 -130h242v-50h-208q20 -31 31 -50t21 -50t10 -63q0 -64 -27 -114h289v-48h-470v48h122q0 1 7.5 16t10 21t7 20.5
t6.5 29t2 30.5q0 30 -11.5 61t-22.5 48.5t-35 50.5h-88z" />
    <glyph glyph-name="yen" unicode="&#xa5;" horiz-adv-x="787" 
d="M134 465h136l-187 235h64l246 -314l247 314h64l-187 -235h135v-44h-171l-63 -80v-56h234v-44h-234v-241h-50v241h-234v44h234v56l-64 80h-170v44z" />
    <glyph glyph-name="dieresis" unicode="&#xa8;" horiz-adv-x="392" 
d="M233 822q0 15 10 25.5t26 10.5t26 -10.5t10 -25.5t-10 -25.5t-26 -10.5t-26 10.5t-10 25.5zM79 822q0 15 10 25.5t26 10.5t26 -10.5t10 -25.5t-10 -25.5t-26 -10.5t-26 10.5t-10 25.5z" />
    <glyph glyph-name="copyright" unicode="&#xa9;" horiz-adv-x="854" 
d="M427 -20q-153 0 -263 107.5t-110 263.5q0 154 110 261.5t263 107.5t263 -107.5t110 -261.5q0 -156 -110 -263.5t-263 -107.5zM427 25q135 0 231.5 94.5t96.5 231.5q0 136 -96.5 230t-231.5 94t-231.5 -94t-96.5 -230q0 -137 96.5 -231.5t231.5 -94.5zM435 126
q-93 0 -159.5 67t-66.5 160q0 92 66.5 159t159.5 67q85 0 156 -59l-27 -36q-40 30 -67 39.5t-62 9.5q-75 0 -128 -53t-53 -127t53 -127.5t128 -53.5q35 0 62.5 9.5t66.5 39.5l27 -36q-71 -59 -156 -59z" />
    <glyph glyph-name="guillemotleft" unicode="&#xab;" horiz-adv-x="425" 
d="M332 121l-172 220l171 220h59l-171 -220l172 -220h-59zM197 121l-172 220l171 220h59l-171 -220l172 -220h-59z" />
    <glyph glyph-name="registered" unicode="&#xae;" horiz-adv-x="854" 
d="M54 351q0 154 110 261.5t263 107.5t263 -107.5t110 -261.5q0 -155 -109.5 -262.5t-263.5 -107.5t-263.5 107.5t-109.5 262.5zM99 351q0 -137 96.5 -231.5t231.5 -94.5t231.5 94.5t96.5 231.5q0 136 -96.5 230t-231.5 94t-231.5 -94t-96.5 -230zM478 331h-32
q23 -33 70 -100t70 -101h-54q-33 47 -95 136.5t-75 108.5h93q103 0 103 75q0 35 -23 57.5t-57 22.5h-145v-400h-45v445h194q52 0 87.5 -36t35.5 -89q0 -52 -36.5 -85.5t-90.5 -33.5z" />
    <glyph glyph-name="macron" unicode="&#xaf;" 
d="M347 837v-45h-295v45h295z" />
    <glyph glyph-name="degree" unicode="&#xb0;" horiz-adv-x="330" 
d="M308 557q0 -59 -41.5 -100.5t-101.5 -41.5q-59 0 -100.5 41.5t-41.5 100.5q0 60 41.5 101.5t100.5 41.5q60 0 101.5 -41.5t41.5 -101.5zM267 557q0 43 -29.5 73.5t-72.5 30.5t-72 -30t-29 -74q0 -42 29.5 -72.5t71.5 -30.5q43 0 72.5 29.5t29.5 73.5z" />
    <glyph glyph-name="acute" unicode="&#xb4;" horiz-adv-x="392" 
d="M156 763h-45l101 140h67z" />
    <glyph glyph-name="paragraph" unicode="&#xb6;" horiz-adv-x="602" 
d="M272 365v-45h-51q-79 0 -133.5 55t-54.5 134q0 80 54.5 135.5t133.5 55.5h348v-45h-71v-655h-45v655h-65v-655h-45v655h-127q-56 0 -97 -44t-41 -102t41 -101t97 -43h56z" />
    <glyph glyph-name="periodcentered" unicode="&#xb7;" horiz-adv-x="262" 
d="M130 392q18 0 29 -12t11 -30q0 -17 -11 -29t-29 -12t-29 12t-11 29q0 18 11 30t29 12z" />
    <glyph glyph-name="cedilla" unicode="&#xb8;" 
d="M102 -186l15 36q31 -18 71 -18q63 0 63 42q0 18 -15.5 29.5t-37.5 11.5q-19 0 -37 -6l-14 18l52 73h43l-35 -52q36 2 63 -19.5t27 -52.5q0 -42 -32 -62.5t-76 -20.5q-45 0 -87 21z" />
    <glyph glyph-name="guillemotright" unicode="&#xbb;" horiz-adv-x="425" 
d="M399 341l-172 -220h-59l172 220l-171 220h59zM264 341l-172 -220h-59l172 220l-171 220h59z" />
    <glyph glyph-name="questiondown" unicode="&#xbf;" horiz-adv-x="574" 
d="M302 626q-18 0 -29 12t-11 30q0 17 11 29t29 12t29 -12t11 -29q0 -18 -11 -30t-29 -12zM126 194q0 -63 49 -110t119 -47q68 0 117.5 49.5t49.5 117.5h51q0 -89 -64 -154t-154 -65q-91 0 -155 61.5t-64 148.5q0 114 93 169q7 4 27 14.5t31 17.5t25 18t20.5 23.5t6.5 27.5
v63h51v-65q0 -35 -15.5 -57t-48.5 -41l-67 -39q-40 -23 -56 -53.5t-16 -78.5z" />
    <glyph glyph-name="Agrave" unicode="&#xc0;" horiz-adv-x="587" 
d="M314 761h-45l-123 140h67zM357 244h-224l-98 -244h-51l285 700h47l287 -700h-54l-259 634l-137 -341h185z" />
    <glyph glyph-name="Aacute" unicode="&#xc1;" horiz-adv-x="587" 
d="M322 763h-45l101 140h67zM357 244h-224l-98 -244h-51l285 700h47l287 -700h-54l-258 633l-138 -340h185q15 -39 19 -49z" />
    <glyph glyph-name="Acircumflex" unicode="&#xc2;" horiz-adv-x="587" 
d="M156 746l114 140h42l113 -140h-53q-54 68 -82 102q-27 -34 -83 -102h-51zM357 244h-224l-98 -244h-51l285 700h47l287 -700h-54l-259 634l-137 -341h185z" />
    <glyph glyph-name="Atilde" unicode="&#xc3;" horiz-adv-x="587" 
d="M394 857h44q-6 -37 -28 -58t-54 -21q-23 0 -63.5 16t-58.5 16q-40 0 -47 -36h-43q5 37 28.5 58.5t56.5 21.5q27 0 65.5 -16.5t57.5 -16.5q34 0 42 36zM357 244h-224l-98 -244h-51l285 700h47l287 -700h-54l-259 634l-137 -341h185z" />
    <glyph glyph-name="Adieresis" unicode="&#xc4;" horiz-adv-x="595" 
d="M337 822q0 15 10 25.5t26 10.5t26 -10.5t10 -25.5t-10 -25.5t-26 -10.5t-26 10.5t-10 25.5zM183 822q0 15 10 25.5t26 10.5t26 -10.5t10 -25.5t-10 -25.5t-26 -10.5t-26 10.5t-10 25.5zM361 244h-224l-98 -244h-51l285 700h47l287 -700h-54l-259 634l-137 -341h185z" />
    <glyph glyph-name="Aring" unicode="&#xc5;" horiz-adv-x="587" 
d="M291 940q37 0 64 -26.5t27 -63.5q0 -38 -27 -64.5t-64 -26.5t-63.5 27t-26.5 64t26.5 63.5t63.5 26.5zM291 907q-23 0 -39 -17t-16 -40t16 -39t39 -16q24 0 40 16t16 39q0 24 -16 40.5t-40 16.5zM357 244h-224l-98 -244h-51l285 700h47l287 -700h-54l-259 634l-137 -341
h185z" />
    <glyph glyph-name="Ccedilla" unicode="&#xc7;" horiz-adv-x="711" 
d="M299 -186l15 36q31 -18 71 -18q63 0 63 42q0 18 -15.5 29.5t-37.5 11.5q-19 0 -37 -6l-14 18l41 59q-139 12 -235.5 117.5t-96.5 246.5q0 150 107.5 257.5t257.5 107.5q74 0 131 -21.5t116 -68.5l-29 -39q-64 47 -111 63t-107 16q-130 0 -222.5 -92.5t-92.5 -222.5
t92.5 -223t222.5 -93q60 0 107 16t111 63l29 -39q-56 -46 -111.5 -67.5t-125.5 -22.5l-24 -36q36 2 63 -19.5t27 -52.5q0 -42 -32 -62.5t-76 -20.5q-45 0 -87 21z" />
    <glyph glyph-name="Egrave" unicode="&#xc8;" horiz-adv-x="526" 
d="M297 761h-45l-123 140h67zM78 700h390v-50h-340v-275h340v-50h-340v-275h340v-50h-390v700z" />
    <glyph glyph-name="Eacute" unicode="&#xc9;" horiz-adv-x="534" 
d="M302 763h-45l101 140h67zM86 700h390v-50h-340v-275h340v-50h-340v-275h340v-50h-390v700z" />
    <glyph glyph-name="Ecircumflex" unicode="&#xca;" horiz-adv-x="534" 
d="M146 746l114 140h42l113 -140h-52l-82 102l-83 -102h-52zM86 700h390v-50h-340v-275h340v-50h-340v-275h340v-50h-390v700z" />
    <glyph glyph-name="Edieresis" unicode="&#xcb;" horiz-adv-x="534" 
d="M319 822q0 15 10 25.5t26 10.5t26 -10.5t10 -25.5t-10 -25.5t-26 -10.5t-26 10.5t-10 25.5zM165 822q0 15 10 25.5t26 10.5t26 -10.5t10 -25.5t-10 -25.5t-26 -10.5t-26 10.5t-10 25.5zM86 700h390v-50h-340v-275h340v-50h-340v-275h340v-50h-390v700z" />
    <glyph glyph-name="Igrave" unicode="&#xcc;" horiz-adv-x="224" 
d="M135 761h-45l-123 140h67zM137 700v-700h-50v700h50z" />
    <glyph glyph-name="Iacute" unicode="&#xcd;" horiz-adv-x="224" 
d="M137 763h-45l101 140h67zM137 700v-700h-50v700h50z" />
    <glyph glyph-name="Icircumflex" unicode="&#xce;" horiz-adv-x="224" 
d="M-22 746l114 140h42l113 -140h-52l-82 102l-83 -102h-52zM137 700v-700h-50v700h50z" />
    <glyph glyph-name="Idieresis" unicode="&#xcf;" horiz-adv-x="224" 
d="M153 822q0 15 10 25.5t26 10.5t26 -10.5t10 -25.5t-10 -25.5t-26 -10.5t-26 10.5t-10 25.5zM-1 822q0 15 10 25.5t26 10.5t26 -10.5t10 -25.5t-10 -25.5t-26 -10.5t-26 10.5t-10 25.5zM137 700v-700h-50v700h50z" />
    <glyph glyph-name="Ntilde" unicode="&#xd1;" horiz-adv-x="748" 
d="M486 857h43q-6 -37 -28 -57.5t-53 -20.5q-23 0 -64 16t-59 16q-38 0 -46 -36h-44q5 37 28.5 58t57.5 21q27 0 65 -16t57 -16q36 0 43 35zM618 0l-486 620v-620h-50v700h50l486 -622v622h49v-700h-49z" />
    <glyph glyph-name="Ograve" unicode="&#xd2;" horiz-adv-x="829" 
d="M438 761h-45l-123 140h67zM49 350q0 150 107.5 257.5t257.5 107.5t258 -107.5t108 -257.5t-108 -258t-258 -108t-257.5 108t-107.5 258zM99 350q0 -130 92.5 -223t222.5 -93t223 93t93 223t-93 222.5t-223 92.5t-222.5 -92.5t-92.5 -222.5z" />
    <glyph glyph-name="Oacute" unicode="&#xd3;" horiz-adv-x="829" 
d="M435 763h-45l101 140h67zM49 350q0 150 107.5 257.5t257.5 107.5t258 -107.5t108 -257.5t-108 -258t-258 -108t-257.5 108t-107.5 258zM99 350q0 -130 92.5 -223t222.5 -93t223 93t93 223t-93 222.5t-223 92.5t-222.5 -92.5t-92.5 -222.5z" />
    <glyph glyph-name="Ocircumflex" unicode="&#xd4;" horiz-adv-x="829" 
d="M279 746l114 140h42l113 -140h-52l-82 102l-83 -102h-52zM49 350q0 150 107.5 257.5t257.5 107.5t258 -107.5t108 -257.5t-108 -258t-258 -108t-257.5 108t-107.5 258zM99 350q0 -130 92.5 -223t222.5 -93t223 93t93 223t-93 222.5t-223 92.5t-222.5 -92.5t-92.5 -222.5z
" />
    <glyph glyph-name="Otilde" unicode="&#xd5;" horiz-adv-x="829" 
d="M518 857h43q-6 -37 -28 -58t-53 -21q-23 0 -64 16t-59 16q-39 0 -46 -36h-44q5 38 28.5 59t57.5 21q27 0 65 -16.5t57 -16.5q36 0 43 36zM49 350q0 150 107.5 257.5t257.5 107.5t258 -107.5t108 -257.5t-108 -258t-258 -108t-257.5 108t-107.5 258zM99 350
q0 -130 92.5 -223t222.5 -93t223 93t93 223t-93 222.5t-223 92.5t-222.5 -92.5t-92.5 -222.5z" />
    <glyph glyph-name="Odieresis" unicode="&#xd6;" horiz-adv-x="837" 
d="M458 822q0 15 10 25.5t26 10.5t26 -10.5t10 -25.5t-10 -25.5t-26 -10.5t-26 10.5t-10 25.5zM304 822q0 15 10 25.5t26 10.5t26 -10.5t10 -25.5t-10 -25.5t-26 -10.5t-26 10.5t-10 25.5zM53 350q0 150 107.5 257.5t257.5 107.5t258 -107.5t108 -257.5t-108 -258t-258 -108
t-257.5 108t-107.5 258zM103 350q0 -130 92.5 -223t222.5 -93t223 93t93 223t-93 222.5t-223 92.5t-222.5 -92.5t-92.5 -222.5z" />
    <glyph glyph-name="multiply" unicode="&#xd7;" horiz-adv-x="586" 
d="M78 601l215 -215l215 215l37 -36l-215 -215l215 -216l-36 -36l-216 215l-216 -215l-36 36l215 216l-215 215z" />
    <glyph glyph-name="Oslash" unicode="&#xd8;" horiz-adv-x="829" 
d="M781 775l-123 -155q122 -112 122 -270q0 -150 -108 -257.5t-258 -107.5q-114 0 -205 63l-97 -123h-64l121 154q-120 109 -120 271q0 150 107.5 257.5t257.5 107.5q112 0 206 -65l99 125h62zM99 350q0 -138 101 -232l389 493q-79 54 -175 54q-130 0 -222.5 -92.5
t-92.5 -222.5zM730 350q0 137 -102 231l-388 -494q80 -53 174 -53q130 0 223 93t93 223z" />
    <glyph glyph-name="Ugrave" unicode="&#xd9;" horiz-adv-x="637" 
d="M342 761h-45l-123 140h67zM79 224v476h51v-477q0 -77 55.5 -133t132.5 -56q78 0 133.5 56t55.5 133v477h51v-477q0 -100 -70 -169.5t-170 -69.5q-99 0 -169 70t-70 170z" />
    <glyph glyph-name="Uacute" unicode="&#xda;" horiz-adv-x="637" 
d="M340 763h-45l101 140h67zM79 224v476h51v-477q0 -77 55.5 -133t132.5 -56q78 0 133.5 56t55.5 133v477h51v-477q0 -100 -70 -169.5t-170 -69.5q-99 0 -169 70t-70 170z" />
    <glyph glyph-name="Ucircumflex" unicode="&#xdb;" horiz-adv-x="637" 
d="M184 746l114 140h42l113 -140h-53l-82 102l-83 -102h-51zM79 224v476h51v-477q0 -77 55.5 -133t132.5 -56q78 0 133.5 56t55.5 133v477h51v-477q0 -100 -70 -169.5t-170 -69.5q-99 0 -169 70t-70 170z" />
    <glyph glyph-name="Udieresis" unicode="&#xdc;" horiz-adv-x="645" 
d="M362 822q0 15 10 25.5t26 10.5t26 -10.5t10 -25.5t-10 -25.5t-26 -10.5t-26 10.5t-10 25.5zM208 822q0 15 10 25.5t26 10.5t26 -10.5t10 -25.5t-10 -25.5t-26 -10.5t-26 10.5t-10 25.5zM83 224v476h51v-477q0 -77 55.5 -133t132.5 -56q78 0 133.5 56t55.5 133v477h51
v-477q0 -100 -70 -169.5t-170 -69.5q-99 0 -169 70t-70 170z" />
    <glyph glyph-name="germandbls" unicode="&#xdf;" horiz-adv-x="659" 
d="M420 325h-166v50l218 275h-340v-650h-50v700h452v-50l-216 -275h102q78 0 133 -55t55 -133t-55 -132.5t-133 -54.5h-165v50h165q57 0 97.5 40t40.5 97q0 56 -40.5 97t-97.5 41z" />
    <glyph glyph-name="agrave" unicode="&#xe0;" horiz-adv-x="540" 
d="M303 563h-45l-123 140h67zM241 -15q-81 0 -136 44t-55 116t54 117.5t142 45.5q95 0 171 -42v68q0 68 -43 102t-107 34q-96 0 -155 -71l-35 33q69 83 192 83q88 0 142.5 -46.5t54.5 -128.5v-340h-49v67q-30 -41 -78 -61.5t-98 -20.5zM249 30q69 0 118.5 43t49.5 94v43
q-26 25 -71 39t-91 14q-69 0 -110.5 -30t-41.5 -84q0 -53 42 -86t104 -33z" />
    <glyph glyph-name="aacute" unicode="&#xe1;" horiz-adv-x="540" 
d="M283 563h-45l101 140h67zM241 -15q-81 0 -136 44t-55 116t54 117.5t142 45.5q95 0 171 -42v68q0 68 -43 102t-107 34q-96 0 -155 -71l-35 33q69 83 192 83q88 0 142.5 -46.5t54.5 -128.5v-340h-49v67q-30 -41 -78 -61.5t-98 -20.5zM249 30q69 0 118.5 43t49.5 94v43
q-26 25 -71 39t-91 14q-69 0 -110.5 -30t-41.5 -84q0 -53 42 -86t104 -33z" />
    <glyph glyph-name="acircumflex" unicode="&#xe2;" horiz-adv-x="540" 
d="M135 546l114 140h42l113 -140h-52l-82 102l-83 -102h-52zM241 -15q-81 0 -136 44t-55 116t54 117.5t142 45.5q95 0 171 -42v68q0 68 -43 102t-107 34q-96 0 -155 -71l-35 33q69 83 192 83q88 0 142.5 -46.5t54.5 -128.5v-340h-49v67q-30 -41 -78 -61.5t-98 -20.5zM249 30
q69 0 118.5 43t49.5 94v43q-26 25 -71 39t-91 14q-69 0 -110.5 -30t-41.5 -84q0 -53 42 -86t104 -33z" />
    <glyph glyph-name="atilde" unicode="&#xe3;" horiz-adv-x="540" 
d="M373 657h44q-6 -37 -28 -57.5t-54 -20.5q-23 0 -63.5 16t-58.5 16q-39 0 -47 -36h-43q5 37 28.5 58t56.5 21q27 0 65.5 -16t57.5 -16q35 0 42 35zM241 -15q-81 0 -136 44t-55 116t54 117.5t142 45.5q95 0 171 -42v68q0 68 -43 102t-107 34q-96 0 -155 -71l-35 33
q69 83 192 83q88 0 142.5 -46.5t54.5 -128.5v-340h-49v67q-30 -41 -78 -61.5t-98 -20.5zM249 30q69 0 118.5 43t49.5 94v43q-26 25 -71 39t-91 14q-69 0 -110.5 -30t-41.5 -84q0 -53 42 -86t104 -33z" />
    <glyph glyph-name="adieresis" unicode="&#xe4;" horiz-adv-x="540" 
d="M311 622q0 15 10 25.5t26 10.5t26 -10.5t10 -25.5t-10 -25.5t-26 -10.5t-26 10.5t-10 25.5zM157 622q0 15 10 25.5t26 10.5t26 -10.5t10 -25.5t-10 -25.5t-26 -10.5t-26 10.5t-10 25.5zM241 -15q-81 0 -136 44t-55 116t54 117.5t142 45.5q95 0 171 -42v68q0 68 -43 102
t-107 34q-96 0 -155 -71l-35 33q69 83 192 83q88 0 142.5 -46.5t54.5 -128.5v-340h-49v67q-30 -41 -78 -61.5t-98 -20.5zM249 30q69 0 118.5 43t49.5 94v43q-26 25 -71 39t-91 14q-69 0 -110.5 -30t-41.5 -84q0 -53 42 -86t104 -33z" />
    <glyph glyph-name="aring" unicode="&#xe5;" horiz-adv-x="540" 
d="M269 559q-37 0 -63.5 27t-26.5 64t26.5 63.5t63.5 26.5t64 -26.5t27 -63.5q0 -38 -27 -64.5t-64 -26.5zM269 707q-23 0 -39 -17t-16 -40t16 -39t39 -16q24 0 40 16t16 39q0 24 -16 40.5t-40 16.5zM241 -15q-81 0 -136 44t-55 116t54 117.5t142 45.5q95 0 171 -42v68
q0 68 -43 102t-107 34q-96 0 -155 -71l-35 33q69 83 192 83q88 0 142.5 -46.5t54.5 -128.5v-340h-49v67q-30 -41 -78 -61.5t-98 -20.5zM249 30q69 0 118.5 43t49.5 94v43q-26 25 -71 39t-91 14q-69 0 -110.5 -30t-41.5 -84q0 -53 42 -86t104 -33z" />
    <glyph glyph-name="ccedilla" unicode="&#xe7;" horiz-adv-x="526" 
d="M199 -186l15 36q31 -18 71 -18q63 0 63 42q0 18 -15.5 29.5t-37.5 11.5q-19 0 -37 -6l-14 18l42 60q-103 9 -172 84.5t-69 178.5q0 110 77 187.5t189 77.5q115 0 196 -81l-30 -35q-70 68 -164 68q-93 0 -154 -63t-61 -154t61 -154t154 -63t164 69l33 -34
q-76 -76 -181 -82l-25 -38q36 2 63 -19.5t27 -52.5q0 -42 -32 -62.5t-76 -20.5q-45 0 -87 21z" />
    <glyph glyph-name="egrave" unicode="&#xe8;" horiz-adv-x="566" 
d="M326 563h-45l-123 140h67zM525 240h-426q5 -87 61 -147t143 -60q45 0 90.5 16t75.5 45l31 -35q-35 -34 -89.5 -54t-107.5 -20q-110 0 -183 77.5t-73 187.5q0 117 79 196q69 69 177 69q92 0 157.5 -64.5t65.5 -181.5q0 -19 -1 -29zM476 288q-1 85 -53 133t-126 48
q-73 0 -129 -49t-66 -132h374z" />
    <glyph glyph-name="eacute" unicode="&#xe9;" horiz-adv-x="566" 
d="M321 563h-45l101 140h67zM525 240h-426q5 -87 61 -147t143 -60q45 0 90.5 16t75.5 45l31 -35q-35 -34 -89.5 -54t-107.5 -20q-110 0 -183 77.5t-73 187.5q0 117 79 196q69 69 177 69q92 0 157.5 -64.5t65.5 -181.5q0 -19 -1 -29zM476 288q-1 85 -53 133t-126 48
q-73 0 -129 -49t-66 -132h374z" />
    <glyph glyph-name="ecircumflex" unicode="&#xea;" horiz-adv-x="566" 
d="M168 546l114 140h42l113 -140h-52l-82 102l-83 -102h-52zM525 240h-426q5 -87 61 -147t143 -60q45 0 90.5 16t75.5 45l31 -35q-35 -34 -89.5 -54t-107.5 -20q-110 0 -183 77.5t-73 187.5q0 117 79 196q69 69 177 69q92 0 157.5 -64.5t65.5 -181.5q0 -19 -1 -29zM476 288
q-1 85 -53 133t-126 48q-73 0 -129 -49t-66 -132h374z" />
    <glyph glyph-name="edieresis" unicode="&#xeb;" horiz-adv-x="566" 
d="M343 622q0 15 10 25.5t26 10.5t26 -10.5t10 -25.5t-10 -25.5t-26 -10.5t-26 10.5t-10 25.5zM189 622q0 15 10 25.5t26 10.5t26 -10.5t10 -25.5t-10 -25.5t-26 -10.5t-26 10.5t-10 25.5zM525 240h-426q5 -87 61 -147t143 -60q45 0 90.5 16t75.5 45l31 -35
q-35 -34 -89.5 -54t-107.5 -20q-110 0 -183 77.5t-73 187.5q0 117 79 196q69 69 177 69q92 0 157.5 -64.5t65.5 -181.5q0 -19 -1 -29zM476 288q-1 85 -53 133t-126 48q-73 0 -129 -49t-66 -132h374z" />
    <glyph glyph-name="igrave" unicode="&#xec;" horiz-adv-x="204" 
d="M126 563h-45l-123 140h67zM77 0v500h49v-500h-49z" />
    <glyph glyph-name="iacute" unicode="&#xed;" horiz-adv-x="204" 
d="M123 563h-45l101 140h67zM77 0v500h49v-500h-49z" />
    <glyph glyph-name="icircumflex" unicode="&#xee;" horiz-adv-x="204" 
d="M-32 546l114 140h42l113 -140h-52l-82 102l-83 -102h-52zM77 0v500h49v-500h-49z" />
    <glyph glyph-name="idieresis" unicode="&#xef;" horiz-adv-x="204" 
d="M143 622q0 15 10 25.5t26 10.5t26 -10.5t10 -25.5t-10 -25.5t-26 -10.5t-26 10.5t-10 25.5zM-11 622q0 15 10 25.5t26 10.5t26 -10.5t10 -25.5t-10 -25.5t-26 -10.5t-26 10.5t-10 25.5zM77 0v500h49v-500h-49z" />
    <glyph glyph-name="ntilde" unicode="&#xf1;" horiz-adv-x="582" 
d="M402 657h44q-6 -37 -28 -57.5t-54 -20.5q-23 0 -63.5 16t-58.5 16q-39 0 -47 -36h-43q5 37 28.5 58t56.5 21q27 0 65.5 -16t57.5 -16q35 0 42 35zM508 340v-340h-49v334q0 69 -40.5 102t-106.5 33q-74 0 -129 -49.5t-55 -127.5v-292h-49v500h49v-83q25 44 73 71t113 27
q90 0 142 -46t52 -129z" />
    <glyph glyph-name="ograve" unicode="&#xf2;" horiz-adv-x="618" 
d="M333 563h-45l-123 140h67zM46 250q0 110 76 187.5t186 77.5q111 0 187.5 -77.5t76.5 -187.5t-76.5 -187.5t-187.5 -77.5q-110 0 -186 77.5t-76 187.5zM98 250q0 -91 60 -154t150 -63q92 0 152 63t60 154t-60 154t-152 63q-90 0 -150 -63t-60 -154z" />
    <glyph glyph-name="oacute" unicode="&#xf3;" horiz-adv-x="618" 
d="M329 563h-45l101 140h67zM46 250q0 110 76 187.5t186 77.5q111 0 187.5 -77.5t76.5 -187.5t-76.5 -187.5t-187.5 -77.5q-110 0 -186 77.5t-76 187.5zM98 250q0 -91 60 -154t150 -63q92 0 152 63t60 154t-60 154t-152 63q-90 0 -150 -63t-60 -154z" />
    <glyph glyph-name="ocircumflex" unicode="&#xf4;" horiz-adv-x="618" 
d="M174 546l114 140h42l113 -140h-52l-82 102l-83 -102h-52zM46 250q0 110 76 187.5t186 77.5q111 0 187.5 -77.5t76.5 -187.5t-76.5 -187.5t-187.5 -77.5q-110 0 -186 77.5t-76 187.5zM98 250q0 -91 60 -154t150 -63q92 0 152 63t60 154t-60 154t-152 63q-90 0 -150 -63
t-60 -154z" />
    <glyph glyph-name="otilde" unicode="&#xf5;" horiz-adv-x="618" 
d="M412 657h44q-6 -37 -28 -57.5t-54 -20.5q-23 0 -63.5 16t-58.5 16q-39 0 -47 -36h-43q5 37 28.5 58t56.5 21q27 0 65.5 -16t57.5 -16q35 0 42 35zM46 250q0 110 76 187.5t186 77.5q111 0 187.5 -77.5t76.5 -187.5t-76.5 -187.5t-187.5 -77.5q-110 0 -186 77.5t-76 187.5z
M98 250q0 -91 60 -154t150 -63q92 0 152 63t60 154t-60 154t-152 63q-90 0 -150 -63t-60 -154z" />
    <glyph glyph-name="odieresis" unicode="&#xf6;" horiz-adv-x="618" 
d="M350 622q0 15 10 25.5t26 10.5t26 -10.5t10 -25.5t-10 -25.5t-26 -10.5t-26 10.5t-10 25.5zM196 622q0 15 10 25.5t26 10.5t26 -10.5t10 -25.5t-10 -25.5t-26 -10.5t-26 10.5t-10 25.5zM46 250q0 110 76 187.5t186 77.5q111 0 187.5 -77.5t76.5 -187.5t-76.5 -187.5
t-187.5 -77.5q-110 0 -186 77.5t-76 187.5zM98 250q0 -91 60 -154t150 -63q92 0 152 63t60 154t-60 154t-152 63q-90 0 -150 -63t-60 -154z" />
    <glyph glyph-name="divide" unicode="&#xf7;" horiz-adv-x="764" 
d="M385 604q18 0 29 -12t11 -30q0 -17 -11 -29t-29 -12t-29 12t-11 29q0 18 11 30t29 12zM120 374h524v-49h-524v49zM385 175q18 0 29 -12t11 -30q0 -17 -11 -29t-29 -12t-29 12t-11 29q0 18 11 30t29 12z" />
    <glyph glyph-name="oslash" unicode="&#xf8;" horiz-adv-x="618" 
d="M46 250q0 110 76 187.5t186 77.5q80 0 145 -43l82 103h61l-105 -134q81 -78 81 -191q0 -110 -76.5 -187.5t-187.5 -77.5q-79 0 -143 42l-80 -102h-63l105 132q-81 78 -81 193zM98 250q0 -92 59 -154l266 338q-50 33 -115 33q-90 0 -150 -63t-60 -154zM520 250
q0 91 -59 153l-266 -338q51 -32 113 -32q92 0 152 63t60 154z" />
    <glyph glyph-name="ugrave" unicode="&#xf9;" horiz-adv-x="582" 
d="M319 563h-45l-123 140h67zM74 160v340h49v-334q0 -69 40.5 -102t106.5 -33q74 0 129 49.5t55 127.5v292h49v-500h-49v83q-25 -44 -73 -71t-113 -27q-90 0 -142 46t-52 129z" />
    <glyph glyph-name="uacute" unicode="&#xfa;" horiz-adv-x="582" 
d="M297 563h-45l101 140h67zM74 160v340h49v-334q0 -69 40.5 -102t106.5 -33q74 0 129 49.5t55 127.5v292h49v-500h-49v83q-25 -44 -73 -71t-113 -27q-90 0 -142 46t-52 129z" />
    <glyph glyph-name="ucircumflex" unicode="&#xfb;" horiz-adv-x="582" 
d="M156 546l114 140h42l113 -140h-52l-82 102l-83 -102h-52zM74 160v340h49v-334q0 -69 40.5 -102t106.5 -33q74 0 129 49.5t55 127.5v292h49v-500h-49v83q-25 -44 -73 -71t-113 -27q-90 0 -142 46t-52 129z" />
    <glyph glyph-name="udieresis" unicode="&#xfc;" horiz-adv-x="582" 
d="M329 622q0 15 10 25.5t26 10.5t26 -10.5t10 -25.5t-10 -25.5t-26 -10.5t-26 10.5t-10 25.5zM175 622q0 15 10 25.5t26 10.5t26 -10.5t10 -25.5t-10 -25.5t-26 -10.5t-26 10.5t-10 25.5zM74 160v340h49v-334q0 -69 40.5 -102t106.5 -33q74 0 129 49.5t55 127.5v292h49
v-500h-49v83q-25 -44 -73 -71t-113 -27q-90 0 -142 46t-52 129z" />
    <glyph glyph-name="ydieresis" unicode="&#xff;" horiz-adv-x="477" 
d="M281 622q0 15 10 25.5t26 10.5t26 -10.5t10 -25.5t-10 -25.5t-26 -10.5t-26 10.5t-10 25.5zM127 622q0 15 10 25.5t26 10.5t26 -10.5t10 -25.5t-10 -25.5t-26 -10.5t-26 10.5t-10 25.5zM214 5h-1l-202 495h53l176 -435l174 435h52l-283 -700h-53z" />
    <glyph glyph-name="dotlessi" unicode="&#x131;" horiz-adv-x="204" 
d="M77 0v500h49v-500h-49z" />
    <glyph glyph-name="Ydieresis" unicode="&#x178;" horiz-adv-x="616" 
d="M348 822q0 15 10 25.5t26 10.5t26 -10.5t10 -25.5t-10 -25.5t-26 -10.5t-26 10.5t-10 25.5zM194 822q0 15 10 25.5t26 10.5t26 -10.5t10 -25.5t-10 -25.5t-26 -10.5t-26 10.5t-10 25.5zM618 700l-286 -359v-341h-50v341l-285 359h63l247 -311l248 311h63z" />
    <glyph glyph-name="circumflex" unicode="&#x2c6;" 
d="M65 746l114 140h42l113 -140h-52l-82 102l-83 -102h-52z" />
    <glyph glyph-name="caron" unicode="&#x2c7;" 
d="M334 886l-114 -140h-42l-113 140h53l82 -102l83 102h51z" />
    <glyph glyph-name="breve" unicode="&#x2d8;" 
d="M199 756q-57 0 -94.5 30.5t-42.5 96.5h44q11 -87 93 -87q84 0 94 87h44q-4 -65 -42.5 -96t-95.5 -31z" />
    <glyph glyph-name="dotaccent" unicode="&#x2d9;" 
d="M159 822q0 17 11.5 29.5t28.5 12.5q18 0 30 -12.5t12 -29.5t-12 -29t-30 -12q-17 0 -28.5 12t-11.5 29z" />
    <glyph glyph-name="ring" unicode="&#x2da;" 
d="M199 759q-37 0 -63.5 27t-26.5 64t26.5 63.5t63.5 26.5t64 -26.5t27 -63.5q0 -38 -27 -64.5t-64 -26.5zM199 907q-23 0 -39 -17t-16 -40t16 -39t39 -16q24 0 40 16t16 39q0 24 -16 40.5t-40 16.5z" />
    <glyph glyph-name="ogonek" unicode="&#x2db;" 
d="M209 -206q-51 0 -78 26t-27 64q0 33 17.5 64.5t43.5 51.5h54q-73 -45 -73 -106q0 -31 18.5 -46.5t47.5 -15.5q35 0 69 18l15 -35q-42 -21 -87 -21z" />
    <glyph glyph-name="tilde" unicode="&#x2dc;" 
d="M302 857h44q-6 -37 -28 -57.5t-54 -20.5q-23 0 -63.5 16t-58.5 16q-39 0 -47 -36h-43q5 37 28.5 58t56.5 21q27 0 65.5 -16t57.5 -16q35 0 42 35z" />
    <glyph glyph-name="hungarumlaut" unicode="&#x2dd;" 
d="M205 763h-40l101 140h62zM110 763h-40l101 140h62z" />
    <glyph glyph-name="endash" unicode="&#x2013;" horiz-adv-x="630" 
d="M36 375h558v-50h-558v50z" />
    <glyph glyph-name="emdash" unicode="&#x2014;" horiz-adv-x="830" 
d="M36 375h758v-50h-758v50z" />
    <glyph glyph-name="quoteleft" unicode="&#x2018;" horiz-adv-x="252" 
d="M156 700h33l-57 -197h-68z" />
    <glyph glyph-name="quoteright" unicode="&#x2019;" horiz-adv-x="253" 
d="M97 503h-33l57 197h68z" />
    <glyph glyph-name="quotesinglbase" unicode="&#x201a;" horiz-adv-x="252" 
d="M96 -120h-33l57 197h68z" />
    <glyph glyph-name="quotedblleft" unicode="&#x201c;" horiz-adv-x="361" 
d="M265 700h33l-57 -197h-68zM156 700h33l-57 -197h-68z" />
    <glyph glyph-name="quotedblright" unicode="&#x201d;" horiz-adv-x="361" 
d="M205 503h-33l57 197h68zM96 503h-33l57 197h68z" />
    <glyph glyph-name="quotedblbase" unicode="&#x201e;" horiz-adv-x="361" 
d="M205 -120h-33l57 197h68zM96 -120h-33l57 197h68z" />
    <glyph glyph-name="dagger" unicode="&#x2020;" horiz-adv-x="446" 
d="M209 -75l-18 386l17 185l-168 -15v56l168 -19l-17 210h58l-16 -210l173 20v-60l-173 18l16 -185l-17 -386h-23z" />
    <glyph glyph-name="bullet" unicode="&#x2022;" horiz-adv-x="627" 
d="M146 350q0 69 48.5 118.5t119.5 49.5q69 0 117.5 -49t48.5 -119t-48.5 -119t-118.5 -49q-69 0 -118 49.5t-49 118.5z" />
    <glyph glyph-name="ellipsis" unicode="&#x2026;" horiz-adv-x="1045" 
d="M820 74q18 0 29 -12t11 -30q0 -17 -11 -29t-29 -12t-29 12t-11 29q0 18 11 30t29 12zM487 74q18 0 29 -12t11 -30q0 -17 -11 -29t-29 -12t-29 12t-11 29q0 18 11 30t29 12zM154 74q18 0 29 -12t11 -30q0 -17 -11 -29t-29 -12t-29 12t-11 29q0 18 11 30t29 12z" />
    <glyph glyph-name="perthousand" unicode="&#x2030;" horiz-adv-x="1069" 
d="M24 540q0 76 39 125.5t102 49.5q62 0 101.5 -49.5t39.5 -125.5q0 -75 -39 -123.5t-102 -48.5t-102 48.5t-39 123.5zM46 0l557 700h55l-552 -700h-60zM70 540q0 -55 26 -91.5t69 -36.5t69.5 36.5t26.5 91.5t-26.5 93t-69.5 38q-42 0 -68.5 -38t-26.5 -93zM767 155
q0 76 39 125.5t102 49.5q62 0 101.5 -49.5t39.5 -125.5q0 -75 -39 -123.5t-102 -48.5t-102 48.5t-39 123.5zM398 155q0 76 39 125.5t102 49.5q62 0 101.5 -49.5t39.5 -125.5q0 -75 -39 -123.5t-102 -48.5t-102 48.5t-39 123.5zM813 155q0 -55 26 -91.5t69 -36.5t69.5 36.5
t26.5 91.5t-26.5 93t-69.5 38q-42 0 -68.5 -38t-26.5 -93zM444 155q0 -55 26 -91.5t69 -36.5t69.5 36.5t26.5 91.5t-26.5 93t-69.5 38q-42 0 -68.5 -38t-26.5 -93z" />
    <glyph glyph-name="guilsinglleft" unicode="&#x2039;" horiz-adv-x="289" 
d="M201 121l-172 220l171 220h59l-171 -220l172 -220h-59z" />
    <glyph glyph-name="guilsinglright" unicode="&#x203a;" horiz-adv-x="289" 
d="M260 341l-172 -220h-59l172 220l-171 220h59z" />
    <glyph glyph-name="fraction" unicode="&#x2044;" horiz-adv-x="721" 
d="M727 775l-669 -850h-64l671 850h62z" />
    <glyph glyph-name="Euro" unicode="&#x20ac;" horiz-adv-x="904" 
d="M542 -16q-123 0 -220.5 75t-131.5 191h-174l19 43h146q-5 30 -5 57q0 31 4 55h-100l19 43h91q33 116 131 191.5t221 75.5q74 0 131 -21.5t116 -68.5l-30 -39q-64 48 -110.5 63.5t-106.5 15.5q-104 0 -186 -60.5t-113 -156.5h475l-20 -43h-467q-5 -30 -5 -55q0 -34 5 -57
h417l-20 -43h-385q32 -95 114 -155.5t185 -60.5q60 0 107 16t110 63l29 -39q-58 -47 -115.5 -68.5t-130.5 -21.5z" />
    <glyph glyph-name="trademark" unicode="&#x2122;" horiz-adv-x="998" 
d="M676 447h-35l-129 176v-281h-42v358h38l151 -205l150 205h38v-358h-42v281zM120 700h271v-42h-115v-316h-42v316h-114v42z" />
    <glyph glyph-name="minus" unicode="&#x2212;" horiz-adv-x="629" 
d="M46 375h537v-50h-537v50z" />
    <glyph glyph-name="approxequal" unicode="&#x2248;" horiz-adv-x="766" 
d="M649 471q-74 -82 -157 -82q-36 0 -105 33t-104 33q-77 0 -135 -70l-31 34q68 88 169 88q36 0 105.5 -33t100.5 -33q29 0 54 11t37 21.5t34 33.5zM649 279q-74 -82 -157 -82q-36 0 -105 33t-104 33q-77 0 -135 -70l-31 34q68 88 169 88q36 0 105.5 -33t100.5 -33
q29 0 54 11t37 21.5t34 33.5z" />
    <glyph glyph-name="mark" horiz-adv-x="840" 
d="M789 384q5 -90 -16 -174t-68 -135q-43 -48 -122 -69.5t-163 -21.5t-163 21.5t-122 69.5q-47 51 -68 135t-16 174q10 179 105 260q43 36 116.5 54t147.5 18q75 0 148.5 -18t116.5 -54q95 -83 104 -260zM399 685v-266h42v266q-13 1 -21 1t-21 -1zM739 273q18 211 -49 307
q-40 59 -111 84q-26 9 -58.5 14t-51.5 6l-19 1q67 -159 95 -242q2 -5 9 -26t9.5 -29.5t7.5 -30t9 -46.5q13 -92 24 -264q121 59 135 226zM101 273q14 -167 135 -226q11 172 24 264q9 56 36 132q21 68 94 242q-70 -1 -128 -21q-71 -25 -113 -84q-66 -97 -48 -307zM596 44
q-22 59 -71.5 171t-80.5 164h-48q-31 -52 -80.5 -164t-71.5 -171q61 -26 176 -30q110 4 176 30z" />
    <glyph glyph-name="logo_vert" horiz-adv-x="1590" 
d="M1012 540q7 -138 -56 -207q-56 -61 -190 -61q-135 0 -191 61q-63 69 -56 207q6 119 70 173q56 49 177 49q120 0 176 -49q64 -54 70 -173zM979 465q14 140 -33 206q-28 39 -74 56q-18 6 -39.5 9.5t-34.5 3.5l-12 1l63 -162q2 -6 7.5 -22t9.5 -30.5t7 -35.5
q11 -108 16 -177q80 38 90 151zM752 741l-1 -178h29l-1 178h-27zM552 465q10 -113 90 -151q8 118 16 177q5 33 24 88q9 27 63 162q-46 -1 -86 -14q-48 -17 -75 -56q-46 -66 -32 -206zM883 312q-13 34 -46.5 111.5t-54.5 113.5h-33q-22 -37 -56.5 -116t-44.5 -109
q40 -18 117 -20q75 2 118 20zM1348 156h59l133 -217h-63l-99 165l-52 -88h84l26 -40h-133l-23 -37h-63zM993 -61h-54v217h199q33 0 51.5 -24t15 -54t-27.5 -45q19 -11 26 -44l1 -50h-52l-2 44q-1 15 -9.5 24t-22.5 9h-102l-10 46h118q28 0 28 24t-28 24h-132zM823 -61h-96
q-41 1 -61 22.5t-18 59.5v135h53v-145q0 -13 6 -20t12 -8t18 -2h76q13 1 19 2t12 8t6 20v145h53v-134q2 -82 -80 -83zM368 19v57q3 82 84 80h164v-44h-164q-18 0 -23.5 -9.5t-6.5 -26.5v-56q1 -12 2.5 -18.5t8 -12.5t19.5 -6h164v-44h-164q-81 -3 -84 80zM181 156h59
l132 -217h-63l-98 165l-52 -88h84l26 -40h-133l-24 -37h-62z" />
    <glyph glyph-name="logo_horiz" horiz-adv-x="2234" 
d="M364 352q5 -87 -36 -131q-34 -38 -120 -38h-1q-86 0 -120 38q-40 43 -36 131q4 74 44 110q37 31 113 31t111 -31q41 -34 45 -110zM343 305q9 87 -21 130q-18 25 -47 35q-11 4 -25 6.5t-22 3.5h-8q32 -78 40 -103q13 -36 16 -56q7 -55 9 -112q52 25 58 96zM199 480v-113
h17v113h-17zM72 305q6 -71 57 -96q6 79 10 112q3 20 16 56q0 1 39 103q-29 -1 -54 -10q-29 -10 -47 -35q-30 -43 -21 -130zM1957 468h70l157 -261h-74l-119 197l-62 -103h101l30 -50h-161l-27 -44h-73zM1529 412v-205h-65v261h240q39 0 61 -29t17.5 -65t-32.5 -55
q27 -10 31 -51l2 -61h-63l-2 54q-2 17 -12 27.5t-27 10.5h-122l-12 54h140q35 0 35 30q0 29 -35 29h-156zM1327 207h-117q-95 0 -95 100v161h64v-173q0 -37 44 -37h92q43 0 44 37v173h64v-161q0 -100 -96 -100zM844 370v-65q2 -44 36 -44h197v-54h-198q-99 0 -100 96v69
q1 96 100 96h198v-53h-197q-36 0 -36 -45zM555 468h71l157 -261h-74l-119 197l-62 -103h101l30 -50h-161l-27 -44h-73zM282 208q-41 104 -64 142h-21q-22 -38 -64 -142q25 -11 74 -13q42 2 75 13z" />
    <glyph glyph-name="A.alt" horiz-adv-x="673" 
d="M542 620l-496 -620h-62l557 700h51v-700h-50v620z" />
    <glyph glyph-name="J.alt" horiz-adv-x="472" 
d="M56 700h341v-576q0 -58 -40.5 -99t-99.5 -41t-99.5 41t-40.5 99v63h50v-63q0 -38 26.5 -64t63.5 -26t63.5 26t26.5 64v526h-291v50z" />
    <glyph glyph-name="V.alt" horiz-adv-x="673" 
d="M132 81l494 619h62l-558 -700h-49v700h51v-619z" />
    <glyph glyph-name="W.alt" horiz-adv-x="980" 
d="M437 78l497 622h62l-557 -700h-52v317l-256 -317h-50v700h50v-621l253 312h53v-313z" />
    <glyph glyph-name="Y.alt" horiz-adv-x="539" 
d="M252 342l-242 358h60l213 -312l211 312h61l-474 -700h-60z" />
    </font>
</defs>
</svg>
