<?xml version="1.0" standalone="no"?>
<!DOCTYPE svg PUBLIC "-//W3C//DTD SVG 1.1//EN" "http://www.w3.org/Graphics/SVG/1.1/DTD/svg11.dtd" >
<svg xmlns="http://www.w3.org/2000/svg" xmlns:xlink="http://www.w3.org/1999/xlink" version="1.1">
<metadata>
Created by FontForge 20150824 at Wed Mar  9 04:11:00 2016
 By Everything Fonts
Copyright (c) Mullen, 2015. All rights reserved.
</metadata>
<defs>
<font id="AcuraBespokeBold" horiz-adv-x="400" >
  <font-face 
    font-family="AcuraBespokeBold"
    font-weight="700"
    font-stretch="normal"
    units-per-em="1000"
    panose-1="2 0 5 3 0 0 0 2 0 4"
    ascent="750"
    descent="-250"
    x-height="500"
    cap-height="700"
    bbox="-89 -226 2184 963"
    underline-thickness="50"
    underline-position="-150"
    unicode-range="U+0020-2248"
  />
<missing-glyph horiz-adv-x="354" 
 />
    <glyph glyph-name=".notdef" horiz-adv-x="354" 
 />
    <glyph glyph-name=".null" horiz-adv-x="0" 
 />
    <glyph glyph-name="nonmarkingreturn" horiz-adv-x="333" 
 />
    <glyph glyph-name="space" unicode=" " horiz-adv-x="285" 
 />
    <glyph glyph-name="exclam" unicode="!" horiz-adv-x="353" 
d="M239 700l-7 -496h-114l-7 496h128zM98 58q0 32 22 53.5t56 21.5q32 0 55.5 -22t23.5 -53q0 -30 -23 -51t-56 -21q-34 0 -56 20.5t-22 51.5z" />
    <glyph glyph-name="quotedbl" unicode="&#x22;" horiz-adv-x="337" 
d="M303 700l-8 -250h-95l-7 250h110zM144 700l-8 -250h-95l-7 250h110z" />
    <glyph glyph-name="numbersign" unicode="#" horiz-adv-x="740" 
d="M128 496h122l63 204h107l-61 -204h99l63 204h105l-61 -204h136l-29 -97h-135l-29 -97h137l-31 -96h-134l-58 -206h-112l63 206h-99l-61 -206h-110l63 206h-127l30 96h125l29 97h-126zM331 399l-31 -97h101l28 97h-98z" />
    <glyph glyph-name="dollar" unicode="$" horiz-adv-x="650" 
d="M526 504h-115q0 62 -28 89q-9 7 -18 12v-192q102 -53 135 -87q54 -57 54 -140t-50 -135t-133 -62v-81h-84v81q-76 11 -122 57q-59 59 -62 164h118q0 -58 36 -94q10 -11 30 -18v218q-39 19 -65.5 36.5t-52 42.5t-38 58t-12.5 75q0 75 44 124.5t121 58.5v79h81v-81
q66 -12 107 -53q54 -54 54 -152zM236 535q0 -49 48 -80v154q-48 -16 -48 -74zM433 183q0 50 -62 90v-177q62 18 62 87z" />
    <glyph glyph-name="percent" unicode="%" horiz-adv-x="724" 
d="M16 531q0 79 45 131.5t115 52.5q69 0 114 -52.5t45 -131.5t-44.5 -130.5t-114.5 -51.5t-115 51.5t-45 130.5zM25 0l561 700h114l-556 -700h-119zM113 531q0 -43 16 -70t47 -27t47 27t16 70q0 44 -16 71t-47 27t-47 -27t-16 -71zM393 167q0 79 45 131.5t115 52.5
q69 0 114 -52.5t45 -131.5t-44.5 -130.5t-114.5 -51.5t-115 51.5t-45 130.5zM490 167q0 -43 16 -70t47 -27t47 27t16 70q0 44 -16 71t-47 27t-47 -27t-16 -71z" />
    <glyph glyph-name="ampersand" unicode="&#x26;" horiz-adv-x="777" 
d="M762 0h-143l-68 86q-32 -47 -83.5 -74t-111.5 -27q-98 0 -168.5 68.5t-70.5 164.5q0 75 44 134.5t115 81.5l-137 171v95h436v-112h-177q-66 0 -98 2v-2q28 -32 63 -77zM240 218q0 -50 34 -85t83 -35q43 0 74.5 21.5t45.5 59.5l-128 162q-47 -5 -78 -40.5t-31 -82.5z" />
    <glyph glyph-name="quotesingle" unicode="'" horiz-adv-x="178" 
d="M144 700l-8 -250h-95l-7 250h110z" />
    <glyph glyph-name="parenleft" unicode="(" horiz-adv-x="386" 
d="M69 350q0 110 41 224.5t115 199.5h134q-169 -210 -169 -423q0 -214 169 -425h-134q-74 85 -115 200t-41 224z" />
    <glyph glyph-name="parenright" unicode=")" horiz-adv-x="386" 
d="M317 350q0 -110 -41 -224.5t-115 -199.5h-134q169 210 169 423q0 214 -169 425h134q74 -85 115 -200t41 -224z" />
    <glyph glyph-name="asterisk" unicode="*" horiz-adv-x="426" 
d="M38 500v81l107 -3l-56 91l72 45l52 -94l52 94l72 -45l-56 -91l107 3v-81l-107 3l56 -91l-72 -45l-52 94l-52 -94l-72 45l56 91z" />
    <glyph glyph-name="plus" unicode="+" horiz-adv-x="761" 
d="M649 296h-206v-219h-124v219h-207v108h207v215h124v-215h206v-108z" />
    <glyph glyph-name="comma" unicode="," horiz-adv-x="299" 
d="M125 -139h-82l72 259h142z" />
    <glyph glyph-name="hyphen" unicode="-" horiz-adv-x="589" 
d="M57 404h475v-108h-475v108z" />
    <glyph glyph-name="period" unicode="." horiz-adv-x="279" 
d="M61 58q0 32 22 53.5t56 21.5q32 0 55.5 -22t23.5 -53q0 -30 -23 -51t-56 -21q-34 0 -56 20.5t-22 51.5z" />
    <glyph glyph-name="slash" unicode="/" horiz-adv-x="792" 
d="M-14 -75l673 849h147l-667 -849h-153z" />
    <glyph glyph-name="zero" unicode="0" horiz-adv-x="608" 
d="M573 347q0 -161 -72.5 -263t-197.5 -102t-196.5 102t-71.5 263q0 163 71.5 265t196.5 102q126 0 198 -102t72 -265zM162 349q0 -116 35.5 -185t105.5 -69t106.5 69t36.5 185q0 115 -36.5 184.5t-106.5 69.5q-69 0 -105 -69.5t-36 -184.5z" />
    <glyph glyph-name="one" unicode="1" horiz-adv-x="317" 
d="M237 0h-124v588h-130l88 112h166v-700z" />
    <glyph glyph-name="two" unicode="2" horiz-adv-x="583" 
d="M390 512q0 42 -29 67t-74 25q-58 0 -88.5 -39t-28.5 -104h-114q-1 9 -1 28q0 99 64 163t165 64q111 0 174 -63q57 -57 57 -145q0 -60 -36.5 -118.5t-125.5 -144.5l-67 -68q-45 -45 -70 -65v-2q30 2 100 2h196v-112h-463v98l260 267q46 48 63.5 78t17.5 69z" />
    <glyph glyph-name="three" unicode="3" horiz-adv-x="590" 
d="M461 48q-67 -64 -167 -64q-106 0 -173 66q-35 35 -56.5 85t-24.5 104h123q5 -74 48 -115q32 -31 85 -31q46 0 77 31q39 39 39 93q0 52 -33 87.5t-89 35.5h-73v77l102 113q47 49 61 61v2q-31 -2 -96 -2l-196 -1v110h439v-102l-150 -163q157 -49 157 -218q0 -99 -73 -169z
" />
    <glyph glyph-name="four" unicode="4" horiz-adv-x="621" 
d="M483 274h125v-109h-125v-165h-123v165h-343v90l339 445h127v-426zM166 273h194v194q0 51 3 88h-2q-26 -50 -43 -72z" />
    <glyph glyph-name="five" unicode="5" horiz-adv-x="596" 
d="M34 239h123q5 -74 48 -115q32 -31 85 -31t90 37q40 40 40 104q0 61 -35 96q-42 42 -101 42q-68 0 -112 -52h-108l59 380h381v-110h-284l-21 -133h1q48 27 89 27q107 0 180 -73t73 -177q0 -102 -75 -177q-73 -73 -179 -73t-173 66q-35 35 -56.5 85t-24.5 104z" />
    <glyph glyph-name="six" unicode="6" horiz-adv-x="586" 
d="M31 240q0 58 29 112t97 138l171 210h149q-145 -175 -173 -212h13q101 0 170.5 -74t69.5 -174q0 -109 -76 -182t-186 -73t-187 73t-77 182zM154 240q0 -60 39 -101t101 -41t101.5 41t39.5 101q0 59 -41.5 101t-99.5 42t-99 -42t-41 -101z" />
    <glyph glyph-name="seven" unicode="7" horiz-adv-x="543" 
d="M184 0h-138l284 506q28 53 49 85v2q-60 -2 -145 -2l-184 -1l-1 110h476v-94z" />
    <glyph glyph-name="eight" unicode="8" horiz-adv-x="558" 
d="M279 714q86 0 146.5 -53t60.5 -130q0 -46 -22 -84t-61 -62v-2q58 -29 89.5 -77t30.5 -107q-1 -94 -69 -154.5t-175 -60.5t-175.5 61t-68.5 154q0 59 31 107.5t89 76.5v2q-39 24 -61 62t-22 84q0 77 60.5 130t146.5 53zM279 437q36 0 61.5 27t25.5 66q0 37 -24.5 61.5
t-62.5 24.5t-62.5 -24.5t-24.5 -61.5q0 -40 25.5 -66.5t61.5 -26.5zM279 86q54 0 88 32t34 83q0 48 -34.5 82t-87.5 34t-87.5 -34t-34.5 -82q0 -51 34 -83t88 -32z" />
    <glyph glyph-name="nine" unicode="9" horiz-adv-x="586" 
d="M555 460q0 -58 -29 -112t-97 -138l-171 -210h-149q145 175 173 212h-13q-101 0 -170.5 74t-69.5 174q0 109 76 182t186 73t187 -73t77 -182zM432 460q0 60 -39 101t-101 41t-101.5 -41t-39.5 -101q0 -59 41.5 -101t99.5 -42t99 42t41 101z" />
    <glyph glyph-name="colon" unicode=":" horiz-adv-x="344" 
d="M94 353q0 32 22 53.5t56 21.5q32 0 55.5 -22t23.5 -53q0 -30 -23 -51t-56 -21q-34 0 -56 20.5t-22 51.5zM94 58q0 32 22 53.5t56 21.5q32 0 55.5 -22t23.5 -53q0 -30 -23 -51t-56 -21q-34 0 -56 20.5t-22 51.5z" />
    <glyph glyph-name="semicolon" unicode=";" horiz-adv-x="353" 
d="M118 353q0 32 22 53.5t56 21.5q32 0 55.5 -22t23.5 -53q0 -30 -23 -51t-56 -21q-34 0 -56 20.5t-22 51.5zM140 -139h-82l72 259h142z" />
    <glyph glyph-name="less" unicode="&#x3c;" horiz-adv-x="711" 
d="M594 38l-477 258v96l477 258v-142l-312 -166l312 -162v-142z" />
    <glyph glyph-name="equal" unicode="=" horiz-adv-x="771" 
d="M112 513h547v-110h-547v110zM112 304h547v-110h-547v110z" />
    <glyph glyph-name="greater" unicode="&#x3e;" horiz-adv-x="711" 
d="M117 650l477 -258v-96l-477 -258v142l312 166l-312 162v142z" />
    <glyph glyph-name="question" unicode="?" horiz-adv-x="553" 
d="M386 507q0 42 -27 70t-77 28t-80 -37.5t-28 -96.5h-118q-3 105 60.5 175t167.5 70q99 0 163 -63t64 -150q-2 -117 -97 -173l-71 -42q-19 -11 -19 -35v-64h-119v75q0 73 70 114l59 34q52 29 52 95zM188 58q0 32 22 53.5t56 21.5q32 0 55.5 -22t23.5 -53q0 -30 -23 -51
t-56 -21q-34 0 -56 20.5t-22 51.5z" />
    <glyph glyph-name="at" unicode="@" horiz-adv-x="837" 
d="M487 269l-56 168q-5 13 -10 37h-2q-7 -30 -9 -37l-27 -89h46l25 -76h-99l-30 -81h-99l149 392h95l106 -274q12 -31 25.5 -44.5t34.5 -13.5q28 0 43.5 33.5t15.5 86.5q0 119 -74.5 189t-197.5 70q-119 0 -198 -81.5t-79 -198.5t80.5 -195.5t192.5 -78.5q84 0 151 43
l48 -87q-99 -55 -199 -55q-155 0 -266 107t-111 265q0 160 106.5 268t269.5 108q170 0 273.5 -94t103.5 -260q0 -84 -43 -144t-119 -60q-112 0 -146 102z" />
    <glyph glyph-name="A" unicode="A" horiz-adv-x="646" 
d="M319 580h-2q-10 -41 -29 -93l-72 -192h123l40 -103h-202l-75 -192h-126l279 700h131l284 -700h-130l-190 487q-18 44 -31 93z" />
    <glyph glyph-name="B" unicode="B" horiz-adv-x="558" 
d="M421 361q48 -19 77 -64.5t29 -101.5q0 -77 -60 -135q-32 -31 -76 -45.5t-121 -14.5h-196v700h185q72 0 114.5 -14.5t72.5 -44.5q55 -55 55 -131q0 -101 -80 -147v-2zM192 403h83q53 0 80 27q25 25 25 71t-25 71t-80 25h-83v-194zM192 103h104q54 0 83 29q26 26 26 69
q0 46 -28 71t-89 25h-96v-194z" />
    <glyph glyph-name="C" unicode="C" horiz-adv-x="726" 
d="M414 100q112 0 203 83l72 -83q-104 -114 -283 -114q-149 0 -257 105.5t-108 258.5t108 258.5t257 105.5q179 0 283 -114l-72 -83q-92 83 -205 83q-102 0 -172 -73t-70 -177t71 -177t173 -73z" />
    <glyph glyph-name="D" unicode="D" horiz-adv-x="678" 
d="M637 350q0 -74 -27.5 -142.5t-74.5 -115.5q-92 -92 -233 -92h-228v700h228q141 0 233 -92q47 -47 74.5 -115.5t27.5 -142.5zM508 350q0 118 -63 181q-59 59 -160 59h-88v-480h88q101 0 160 59q63 63 63 181z" />
    <glyph glyph-name="E" unicode="E" horiz-adv-x="536" 
d="M74 700h412v-110h-290v-186h290v-108h-290v-186h298v-110h-420v700z" />
    <glyph glyph-name="F" unicode="F" horiz-adv-x="522" 
d="M74 700h416v-110h-294v-186h294v-108h-294v-296h-122v700z" />
    <glyph glyph-name="G" unicode="G" horiz-adv-x="803" 
d="M415 600q-103 0 -175 -73t-72 -177q0 -105 71.5 -178t177.5 -73q83 0 145 49t83 132h-254v108h392v-16q0 -162 -105 -274t-263 -112q-156 0 -265 106.5t-109 257.5q0 150 108.5 257t261.5 107q177 0 281 -114l-72 -83q-96 83 -205 83z" />
    <glyph glyph-name="H" unicode="H" horiz-adv-x="713" 
d="M640 700v-700h-123v294h-319v-294h-124v700h124v-294h319v294h123z" />
    <glyph glyph-name="I" unicode="I" horiz-adv-x="274" 
d="M199 700v-700h-124v700h124z" />
    <glyph glyph-name="J" unicode="J" horiz-adv-x="499" 
d="M-12 198h124v-4q1 -50 27 -79t79 -29q38 0 64 26t26 65v523h122v-510q0 -91 -60 -150.5t-158 -59.5q-101 0 -162.5 61t-61.5 157z" />
    <glyph glyph-name="K" unicode="K" horiz-adv-x="545" 
d="M197 700v-311h2q61 92 63 94l152 217h141l-250 -344l253 -356h-147l-143 206q-6 8 -69 102h-2v-308h-123v700h123z" />
    <glyph glyph-name="L" unicode="L" horiz-adv-x="504" 
d="M198 110h303v-110h-427v700h124v-590z" />
    <glyph glyph-name="M" unicode="M" horiz-adv-x="939" 
d="M668 424l-152 -206h-93l-152 206q-36 47 -72 118h-3q3 -42 3 -138l1 -404h-126v700h141l256 -350l254 350h140v-700h-126v404q0 82 4 138h-3q-31 -66 -72 -118z" />
    <glyph glyph-name="N" unicode="N" horiz-adv-x="758" 
d="M550 0l-284 410q-32 45 -71 115h-2q5 -67 5 -113v-412h-124v700h134l285 -407q27 -39 70 -115h2q-5 68 -5 113v409h124v-700h-134z" />
    <glyph glyph-name="O" unicode="O" horiz-adv-x="836" 
d="M41 350q0 152 107.5 258.5t269.5 106.5q164 0 270.5 -106t106.5 -259t-106.5 -259t-270.5 -106q-162 0 -269.5 106.5t-107.5 258.5zM170 350q0 -106 68.5 -178.5t179.5 -72.5q112 0 180 72t68 179t-68 179t-180 72q-111 0 -179.5 -72.5t-68.5 -178.5z" />
    <glyph glyph-name="P" unicode="P" horiz-adv-x="602" 
d="M376 272h-179v-272h-123v700h302q97 0 159 -62q60 -60 60 -152t-60 -152q-62 -62 -159 -62zM196 379h169q50 0 76 26q29 29 29 82t-28 81q-25 25 -77 25h-169v-214z" />
    <glyph glyph-name="Q" unicode="Q" horiz-adv-x="836" 
d="M41 350q0 152 107.5 258.5t269.5 106.5q164 0 270.5 -106t106.5 -259q0 -135 -84 -235l103 -115h-143l-41 44q-94 -59 -212 -59q-162 0 -269.5 106.5t-107.5 258.5zM170 350q0 -106 68.5 -178.5t179.5 -72.5q73 0 130 33l-148 162h146l78 -91q42 65 42 147q0 107 -68 179
t-180 72q-111 0 -179.5 -72.5t-68.5 -178.5z" />
    <glyph glyph-name="R" unicode="R" horiz-adv-x="641" 
d="M195 593v-593h-121v700h328q90 0 151 -61q58 -58 58 -143q0 -82 -56 -135.5t-139 -55.5l166 -305h-133l-209 395v2h129q68 0 92 24q28 28 28 74q-2 47 -28 73q-25 25 -77 25h-189z" />
    <glyph glyph-name="S" unicode="S" horiz-adv-x="533" 
d="M464 504h-118q0 57 -28 85q-24 24 -61 24q-35 0 -54.5 -22t-19.5 -57q0 -40 25 -65q19 -19 89 -53q104 -53 140 -90q55 -58 55 -140q0 -93 -62.5 -146.5t-161.5 -53.5q-105 0 -165 60q-58 58 -62 164h122q0 -58 36 -94q28 -28 75 -28q44 0 71 24.5t27 69.5q0 35 -30 65
q-25 25 -101 62q-44 21 -71 37.5t-56 43t-43 60.5t-14 78q0 83 55 134t145 51q96 0 153 -57q54 -54 54 -152z" />
    <glyph glyph-name="T" unicode="T" horiz-adv-x="544" 
d="M-3 700h550v-110h-212v-590h-126v590h-212v110z" />
    <glyph glyph-name="U" unicode="U" horiz-adv-x="651" 
d="M64 232v468h122v-469q0 -62 40 -98t99 -36t99 36t40 98v469h123v-468q0 -110 -75 -178t-187 -68q-111 0 -186 68t-75 178z" />
    <glyph glyph-name="V" unicode="V" horiz-adv-x="660" 
d="M368 223l179 477h136l-276 -700h-152l-276 700h139l179 -477q17 -47 34 -113h2q21 75 35 113z" />
    <glyph glyph-name="W" unicode="W" horiz-adv-x="1022" 
d="M589 700l127 -426q27 -94 35 -145h2q7 55 34 145l125 426h128l-215 -700h-150l-135 460q-14 47 -28 108h-2q-8 -51 -25 -107l-134 -461h-154l-215 700h135l125 -426q26 -85 35 -145h2q12 70 34 145l125 426h151z" />
    <glyph glyph-name="X" unicode="X" horiz-adv-x="612" 
d="M135 700l171 -250l173 250h141l-244 -349l244 -351h-140l-174 251l-174 -251h-140l244 350l-244 350h143z" />
    <glyph glyph-name="Y" unicode="Y" horiz-adv-x="663" 
d="M392 308v-308h-122v308l-279 392h142l141 -201q30 -44 58 -89q33 53 59 90l141 200h139z" />
    <glyph glyph-name="Z" unicode="Z" horiz-adv-x="521" 
d="M312 110h193v-110h-492v89l344 500v2q-75 -1 -162 -1h-172v110h485v-93l-343 -496v-2q71 1 147 1z" />
    <glyph glyph-name="bracketleft" unicode="[" horiz-adv-x="322" 
d="M80 775h216v-106h-98v-636h98v-107h-216v849z" />
    <glyph glyph-name="backslash" unicode="\" horiz-adv-x="792" 
d="M133 774l673 -849h-153l-667 849h147z" />
    <glyph glyph-name="bracketright" unicode="]" horiz-adv-x="322" 
d="M242 -74h-216v106h98v636h-98v107h216v-849z" />
    <glyph glyph-name="asciicircum" unicode="^" horiz-adv-x="924" 
d="M319 264h-125l220 447h95l220 -447h-122l-144 294z" />
    <glyph glyph-name="underscore" unicode="_" horiz-adv-x="476" 
d="M488 -149h-500v75h500v-75z" />
    <glyph glyph-name="grave" unicode="`" horiz-adv-x="376" 
d="M235 755h-98l-165 140h162z" />
    <glyph glyph-name="a" unicode="a" horiz-adv-x="539" 
d="M245 320q73 0 125 -24v17q0 54 -21 75q-29 29 -86 29q-43 0 -84 -22q-26 -15 -55 -45l-67 70q22 30 67 58q63 37 144 37q110 0 172 -62q49 -49 49 -135v-318h-111v49q-23 -27 -64 -45.5t-86 -18.5q-80 0 -134 45.5t-54 123.5q0 72 59 119t146 47zM256 88q39 0 78 26
t39 57v30q-46 32 -111 32q-40 0 -69 -18t-29 -54q0 -35 24.5 -54t67.5 -19z" />
    <glyph glyph-name="b" unicode="b" horiz-adv-x="608" 
d="M178 700v-256q51 71 153 71q107 0 177 -76.5t70 -188.5q0 -111 -69 -188t-174 -77t-161 67v-52h-114v700h118zM456 250q0 70 -41 114t-102 44q-62 0 -99.5 -45.5t-37.5 -112.5q0 -66 38 -112t99 -46t102 44t41 114z" />
    <glyph glyph-name="c" unicode="c" horiz-adv-x="521" 
d="M30 250q0 112 77 188.5t200 76.5q64 0 118.5 -26.5t85.5 -67.5l-82 -74q-49 60 -128 60q-65 0 -105.5 -44t-40.5 -111t43.5 -112.5t109.5 -45.5q77 0 135 66l77 -77q-85 -98 -213 -98q-123 0 -200 76.5t-77 188.5z" />
    <glyph glyph-name="d" unicode="d" horiz-adv-x="608" 
d="M273 515q105 0 157 -63v248h118v-700h-114v61q-49 -76 -157 -76q-107 0 -177 76.5t-70 188.5q0 111 69 188t174 77zM152 250q0 -70 40.5 -114t101.5 -44q62 0 100 45.5t38 112.5q0 66 -38.5 112t-99.5 46t-101.5 -44t-40.5 -114z" />
    <glyph glyph-name="e" unicode="e" horiz-adv-x="553" 
d="M520 211h-361q6 -48 39 -81q42 -42 112 -42q73 0 136 63l66 -78q-91 -88 -214 -88q-124 0 -196 76t-72 189q0 114 67 189.5t184 75.5q115 0 178.5 -72.5t63.5 -192.5q0 -20 -3 -39zM282 417q-53 0 -87 -30t-41 -77h250q-5 45 -37.5 76t-84.5 31z" />
    <glyph glyph-name="f" unicode="f" horiz-adv-x="372" 
d="M358 692v-101q-29 17 -80 17q-79 0 -79 -79v-29h153v-100h-153v-400h-120v400h-77v100h77v25q0 75 49.5 128t140.5 53q52 0 89 -14z" />
    <glyph glyph-name="g" unicode="g" horiz-adv-x="505" 
d="M235 515q48 0 85 -15h183v-94h-31q-44 0 -54 1q14 -37 14 -79q0 -80 -55.5 -126t-141.5 -46q-26 0 -45 4q-21 -12 -21 -31q0 -30 55 -30h11q105 0 175.5 -38.5t70.5 -117.5q0 -75 -67.5 -116t-173.5 -41q-102 0 -171.5 39.5t-69.5 116.5q0 75 80 120q-25 25 -25 61
q0 47 44 76q-60 57 -60 135q0 81 55.5 131t141.5 50zM238 426q-39 0 -63 -25t-24 -64q0 -40 24 -66t63 -26t62.5 26t23.5 66q0 39 -23.5 64t-62.5 25zM120 -56q0 -32 34.5 -49.5t83.5 -17.5q121 0 121 69q0 64 -121 64q-118 0 -118 -66z" />
    <glyph glyph-name="h" unicode="h" horiz-adv-x="570" 
d="M60 0v700h118v-257q51 72 156 72q93 0 139.5 -51t46.5 -128v-336h-118v311q0 48 -26 74.5t-70 26.5q-55 0 -91.5 -40t-36.5 -107v-265h-118z" />
    <glyph glyph-name="i" unicode="i" horiz-adv-x="244" 
d="M49 640q0 29 21 49.5t52 20.5q30 0 52 -20.5t22 -49.5t-22 -48.5t-52 -19.5q-31 0 -52 19.5t-21 48.5zM63 0v500h118v-500h-118z" />
    <glyph glyph-name="j" unicode="j" horiz-adv-x="250" 
d="M55 640q0 29 21 49.5t52 20.5q30 0 52 -20.5t22 -49.5t-22 -48.5t-52 -19.5q-31 0 -52 19.5t-21 48.5zM1 -209q-38 0 -83 14v105q42 -11 71 -11q81 0 81 77v524h118v-522q0 -98 -50.5 -142.5t-136.5 -44.5z" />
    <glyph glyph-name="k" unicode="k" horiz-adv-x="527" 
d="M178 254v-254h-118v700h118v-403l183 203h152l-206 -220l244 -280h-158z" />
    <glyph glyph-name="l" unicode="l" horiz-adv-x="238" 
d="M60 0v700h118v-700h-118z" />
    <glyph glyph-name="m" unicode="m" horiz-adv-x="867" 
d="M817 343v-343h-118v318q0 46 -24.5 70t-64.5 24q-55 0 -85 -39t-30 -108v-265h-116v322q0 43 -25 66.5t-64 23.5q-56 0 -85.5 -40t-29.5 -114v-258h-118v500h116v-60q44 75 140 75q115 0 160 -82q29 40 72 61t88 21q89 0 136.5 -48.5t47.5 -123.5z" />
    <glyph glyph-name="n" unicode="n" horiz-adv-x="567" 
d="M517 336v-336h-118v311q0 48 -26 74.5t-70 26.5q-57 0 -92.5 -41.5t-35.5 -112.5v-258h-118v500h114v-63q51 78 160 78q93 0 139.5 -51t46.5 -128z" />
    <glyph glyph-name="o" unicode="o" horiz-adv-x="596" 
d="M566 250q0 -110 -76.5 -187.5t-191.5 -77.5t-191.5 77.5t-76.5 187.5t76.5 187.5t191.5 77.5t191.5 -77.5t76.5 -187.5zM152 250q0 -66 41.5 -112t104.5 -46t104.5 46t41.5 112t-41.5 112t-104.5 46t-104.5 -46t-41.5 -112z" />
    <glyph glyph-name="p" unicode="p" horiz-adv-x="605" 
d="M173 500v-59q51 74 154 74q107 0 177 -76.5t70 -188.5q0 -111 -69 -188t-174 -77q-100 0 -154 60v-245h-120v700h116zM452 250q0 70 -40.5 114t-101.5 44q-62 0 -99 -45.5t-37 -112.5t37.5 -112.5t98.5 -45.5t101.5 44t40.5 114z" />
    <glyph glyph-name="q" unicode="q" horiz-adv-x="605" 
d="M428 -200v254q-51 -69 -151 -69q-107 0 -177 76.5t-70 188.5q0 111 69 188t174 77q103 0 159 -66v51h116v-700h-120zM152 250q0 -70 40.5 -114t101.5 -44q62 0 99 45.5t37 112.5t-37.5 112.5t-98.5 45.5t-101.5 -44t-40.5 -114z" />
    <glyph glyph-name="r" unicode="r" horiz-adv-x="349" 
d="M57 0v500h118v-71q12 34 44 54.5t69 20.5q34 0 54 -5v-114q-19 4 -44 4q-49 0 -84 -35q-39 -41 -39 -108v-246h-118z" />
    <glyph glyph-name="s" unicode="s" horiz-adv-x="461" 
d="M220 515q87 0 135.5 -39.5t52.5 -117.5h-114q-7 66 -66 66q-27 0 -42.5 -13t-15.5 -31q0 -21 14 -35q9 -9 64 -29q94 -31 138 -65.5t44 -99.5q0 -78 -58.5 -122t-136.5 -44q-91 0 -143.5 47t-54.5 125h121q3 -33 22 -55.5t56 -22.5q33 0 52.5 13.5t19.5 39.5
q0 24 -19.5 39t-60.5 28q-106 34 -143 71q-38 38 -38 98q0 61 50.5 104t122.5 43z" />
    <glyph glyph-name="t" unicode="t" horiz-adv-x="366" 
d="M2 400v100h75v124h118v-124h145v-100h-145v-230q0 -71 67 -71q41 0 83 27v-104q-40 -26 -113 -26q-67 0 -111 41t-44 116v247h-75z" />
    <glyph glyph-name="u" unicode="u" horiz-adv-x="567" 
d="M50 164v336h118v-311q0 -48 26 -74.5t70 -26.5q57 0 92.5 41.5t35.5 112.5v258h118v-500h-114v63q-51 -78 -160 -78q-93 0 -139.5 51t-46.5 128z" />
    <glyph glyph-name="v" unicode="v" horiz-adv-x="532" 
d="M405 500h128l-201 -500h-135l-198 500h131l103 -274q17 -47 33 -122h2q23 91 34 122z" />
    <glyph glyph-name="w" unicode="w" horiz-adv-x="797" 
d="M469 500l69 -228q23 -78 33 -158h2q8 72 34 158l63 228h122l-155 -500h-136l-70 238q-22 76 -32 126h-1q-12 -66 -30 -126l-69 -238h-140l-154 500h130l64 -228q23 -84 33 -158h2q10 80 33 158l67 228h135z" />
    <glyph glyph-name="x" unicode="x" horiz-adv-x="499" 
d="M150 500l100 -152l104 152h135l-171 -243l179 -257h-134l-113 165l-112 -165h-134l178 256l-171 244h139z" />
    <glyph glyph-name="y" unicode="y" horiz-adv-x="530" 
d="M258 -200h-130l78 202l-207 498h133l103 -267q13 -33 34 -113h2q21 75 35 113l100 267h125z" />
    <glyph glyph-name="z" unicode="z" horiz-adv-x="442" 
d="M167 100h242v-100h-377v104l239 296h-239v100h378v-105z" />
    <glyph glyph-name="braceleft" unicode="{" horiz-adv-x="339" 
d="M103 36v209q0 33 -20 50.5t-40 17.5v78q19 0 39.5 16.5t20.5 46.5v211q0 51 35 80.5t79 29.5h96v-107h-84q-10 0 -10 -26v-207q0 -53 -46 -83q46 -18 46 -87v-206q0 -26 10 -26h84v-107h-96q-44 0 -79 29.5t-35 80.5z" />
    <glyph glyph-name="bar" unicode="|" horiz-adv-x="535" 
d="M326 775v-849h-117v849h117z" />
    <glyph glyph-name="braceright" unicode="}" horiz-adv-x="339" 
d="M236 665v-209q0 -33 20 -50.5t40 -17.5v-78q-19 0 -39.5 -16.5t-20.5 -46.5v-211q0 -51 -35 -80.5t-79 -29.5h-96v107h84q10 0 10 26v207q0 53 46 83q-46 18 -46 87v206q0 26 -10 26h-84v107h96q44 0 79 -29.5t35 -80.5z" />
    <glyph glyph-name="asciitilde" unicode="~" horiz-adv-x="586" 
d="M365 369q15 -1 31.5 14.5t48.5 59.5l71 -69q-23 -33 -40.5 -53.5t-50 -39t-66.5 -15.5q-28 3 -88 35.5t-73 33.5q-15 1 -31.5 -14.5t-48.5 -59.5l-71 69q23 33 40.5 53.5t50 39t66.5 15.5q30 -3 85.5 -35t75.5 -34z" />
    <glyph glyph-name="exclamdown" unicode="&#xa1;" horiz-adv-x="353" 
d="M256 642q0 -32 -22 -53.5t-56 -21.5q-32 0 -55.5 22t-23.5 53q0 30 23 51t56 21q34 0 56 -20.5t22 -51.5zM115 0l7 496h114l7 -496h-128z" />
    <glyph glyph-name="cent" unicode="&#xa2;" horiz-adv-x="607" 
d="M66 349q0 91 58.5 159t144.5 84v108h81v-106q87 -8 152 -76l-73 -84q-37 36 -79 45v-260q42 8 79 45l73 -84q-63 -66 -152 -76v-104h-81v106q-86 15 -144.5 83t-58.5 160zM269 226v246q-34 -16 -54 -49.5t-20 -73.5t20 -74t54 -49z" />
    <glyph glyph-name="sterling" unicode="&#xa3;" horiz-adv-x="665" 
d="M503 404v-108h-153q25 -63 25 -120q0 -26 -6 -66h235v-110h-500v110h137q8 35 8 64q0 52 -37 122h-109v108h52q-30 65 -30 117q0 78 55 135t156 57q107 0 163.5 -60.5t47.5 -158.5h-118q2 60 -19 89.5t-69 29.5q-41 0 -62 -26t-21 -66q0 -48 38 -117h207z" />
    <glyph glyph-name="yen" unicode="&#xa5;" horiz-adv-x="830" 
d="M127 220v86h227v2l-60 84h-168l1 86h106l-158 222h142l141 -201q30 -44 58 -89q33 53 59 90l141 200h139l-158 -222h105v-86h-166l-60 -84v-2h225v-86h-225v-220h-122v220h-227z" />
    <glyph glyph-name="dieresis" unicode="&#xa8;" horiz-adv-x="376" 
d="M227 817q0 28 19 47.5t49 19.5t51 -19.5t21 -47.5q0 -27 -21 -45.5t-51 -18.5t-49 18.5t-19 45.5zM9 817q0 28 19 47.5t49 19.5t51 -19.5t21 -47.5q0 -27 -21 -45.5t-51 -18.5t-49 18.5t-19 45.5z" />
    <glyph glyph-name="copyright" unicode="&#xa9;" horiz-adv-x="852" 
d="M427 -23q-165 0 -277 106.5t-112 268.5q0 160 112 266.5t277 106.5q164 0 275.5 -106.5t111.5 -266.5q0 -162 -111.5 -268.5t-275.5 -106.5zM427 72q126 0 204.5 77t78.5 203q0 124 -78.5 201t-204.5 77q-124 0 -204.5 -77.5t-80.5 -200.5q0 -125 80 -202.5t205 -77.5z
M326 353q0 -49 32 -83.5t81 -34.5q54 0 99 37l47 -71q-58 -58 -152 -58q-90 0 -150.5 62t-60.5 149t60.5 149t150.5 62q94 0 152 -58l-47 -71q-45 37 -99 37q-49 0 -81 -34.5t-32 -85.5z" />
    <glyph glyph-name="guillemotleft" unicode="&#xab;" horiz-adv-x="593" 
d="M426 121l-172 220l171 220h138l-171 -220l172 -220h-138zM186 121l-172 220l171 220h138l-171 -220l172 -220h-138z" />
    <glyph glyph-name="registered" unicode="&#xae;" horiz-adv-x="852" 
d="M427 -23q-165 0 -277 106.5t-112 268.5q0 160 112 266.5t277 106.5q164 0 275.5 -106.5t111.5 -266.5q0 -162 -111.5 -268.5t-275.5 -106.5zM427 72q126 0 204.5 77t78.5 203q0 124 -78.5 201t-204.5 77q-124 0 -204.5 -77.5t-80.5 -200.5q0 -125 80 -202.5t205 -77.5z
M388 386h82q23 0 35.5 14t12.5 34t-13.5 33.5t-37.5 13.5h-96v-319h-91v395h203q52 0 89.5 -36.5t37.5 -80.5t-27.5 -75t-70.5 -43l87 -160h-96l-115 222v2z" />
    <glyph glyph-name="macron" unicode="&#xaf;" 
d="M346 850v-91h-292v91h292z" />
    <glyph glyph-name="degree" unicode="&#xb0;" horiz-adv-x="317" 
d="M303 556q0 -61 -41 -102.5t-103 -41.5t-103 41.5t-41 102.5t41 102.5t103 41.5t103 -41.5t41 -102.5zM95 556q0 -34 17.5 -55t46.5 -21t46.5 21t17.5 55t-17.5 55t-46.5 21t-46.5 -21t-17.5 -55z" />
    <glyph glyph-name="acute" unicode="&#xb4;" horiz-adv-x="376" 
d="M239 755h-100l101 140h164z" />
    <glyph glyph-name="paragraph" unicode="&#xb6;" horiz-adv-x="637" 
d="M271 390v-89h-39q-90 0 -148.5 58t-57.5 146q1 85 60 140t146 55h380v-87h-70v-613h-92v613h-48v-613h-92v613h-85q-50 0 -73.5 -31.5t-23.5 -81.5q0 -46 29 -78t79 -32h35z" />
    <glyph glyph-name="periodcentered" unicode="&#xb7;" horiz-adv-x="319" 
d="M81 348q0 32 22 53.5t56 21.5q32 0 55.5 -22t23.5 -53q0 -30 -23 -51t-56 -21q-34 0 -56 20.5t-22 51.5z" />
    <glyph glyph-name="cedilla" unicode="&#xb8;" 
d="M107 -202l26 67q32 -16 71 -16t39 26q0 11 -13.5 19.5t-35.5 8.5q-15 0 -24 -2l-11 27l52 72h81l-25 -53q31 -7 52 -29t21 -52q0 -44 -38 -68t-87 -24q-60 0 -108 24z" />
    <glyph glyph-name="guillemotright" unicode="&#xbb;" horiz-adv-x="593" 
d="M407 561l172 -220l-171 -220h-138l171 220l-172 220h138zM167 561l172 -220l-171 -220h-138l171 220l-172 220h138z" />
    <glyph glyph-name="questiondown" unicode="&#xbf;" horiz-adv-x="553" 
d="M365 644q0 -32 -22 -53.5t-56 -21.5q-32 0 -55.5 22t-23.5 53q0 30 23 51t56 21q34 0 56 -20.5t22 -51.5zM167 195q0 -42 27 -70t77 -28t80 37.5t28 96.5h118q3 -105 -60.5 -175t-167.5 -70q-99 0 -163 63t-64 150q2 117 97 173l71 42q19 11 19 35v64h119v-75
q0 -73 -70 -114l-59 -34q-52 -29 -52 -95z" />
    <glyph glyph-name="Agrave" unicode="&#xc0;" horiz-adv-x="646" 
d="M366 755h-98l-165 140h162zM319 580h-2q-10 -41 -29 -93l-72 -192h123l40 -103h-202l-75 -192h-126l279 700h131l284 -700h-130l-190 487q-18 44 -31 93z" />
    <glyph glyph-name="Aacute" unicode="&#xc1;" horiz-adv-x="646" 
d="M373 755h-100l101 140h164zM319 580h-2q-10 -41 -29 -93l-72 -192h123l40 -103h-202l-75 -192h-126l279 700h131l284 -700h-130l-190 487q-18 44 -31 93z" />
    <glyph glyph-name="Acircumflex" unicode="&#xc2;" horiz-adv-x="646" 
d="M146 756l114 140h127l113 -140h-121l-58 73l-58 -73h-117zM319 580h-2q-10 -41 -29 -93l-72 -192h123l40 -103h-202l-75 -192h-126l279 700h131l284 -700h-130l-190 487q-18 44 -31 93z" />
    <glyph glyph-name="Atilde" unicode="&#xc3;" horiz-adv-x="646" 
d="M377 840q21 0 28.5 8t10.5 29h93q-9 -125 -113 -125q-33 0 -70.5 13t-56.5 13q-21 0 -28.5 -8t-10.5 -29h-93q9 125 113 125q30 0 70.5 -13t56.5 -13zM319 580h-2q-10 -41 -29 -93l-72 -192h123l40 -103h-202l-75 -192h-126l279 700h131l284 -700h-130l-190 487
q-18 44 -31 93z" />
    <glyph glyph-name="Adieresis" unicode="&#xc4;" horiz-adv-x="646" 
d="M362 817q0 28 19 47.5t49 19.5t51 -19.5t21 -47.5q0 -27 -21 -45.5t-51 -18.5t-49 18.5t-19 45.5zM144 817q0 28 19 47.5t49 19.5t51 -19.5t21 -47.5q0 -27 -21 -45.5t-51 -18.5t-49 18.5t-19 45.5zM319 580h-2q-10 -41 -29 -93l-72 -192h123l40 -103h-202l-75 -192h-126
l279 700h131l284 -700h-130l-190 487q-18 44 -31 93z" />
    <glyph glyph-name="Aring" unicode="&#xc5;" horiz-adv-x="646" 
d="M442 850q0 -45 -34 -78.5t-85 -33.5t-85 33.5t-34 78.5q0 46 34 79.5t85 33.5t85 -33.5t34 -79.5zM271 851q0 -22 14 -37t38 -15t38 15t14 37q0 21 -14 36t-38 15t-38 -15t-14 -36zM319 580h-2q-10 -41 -29 -93l-72 -192h123l40 -103h-202l-75 -192h-126l279 700h131
l284 -700h-130l-190 487q-18 44 -31 93z" />
    <glyph glyph-name="Ccedilla" unicode="&#xc7;" horiz-adv-x="726" 
d="M269 -202l26 67q32 -16 71 -16t39 26q0 11 -13.5 19.5t-35.5 8.5q-15 0 -24 -2l-11 27l43 61q-135 15 -229 117t-94 244q0 153 108 258.5t257 105.5q179 0 283 -114l-72 -83q-92 83 -205 83q-102 0 -172 -73t-70 -177t71 -177t173 -73q112 0 203 83l72 -83
q-90 -99 -241 -112l-19 -41q31 -7 52 -29t21 -52q0 -44 -38 -68t-87 -24q-60 0 -108 24z" />
    <glyph glyph-name="Egrave" unicode="&#xc8;" horiz-adv-x="536" 
d="M340 755h-98l-165 140h162zM74 700h412v-110h-290v-186h290v-108h-290v-186h298v-110h-420v700z" />
    <glyph glyph-name="Eacute" unicode="&#xc9;" horiz-adv-x="536" 
d="M304 755h-100l101 140h164zM74 700h412v-110h-290v-186h290v-108h-290v-186h298v-110h-420v700z" />
    <glyph glyph-name="Ecircumflex" unicode="&#xca;" horiz-adv-x="536" 
d="M101 756l114 140h127l113 -140h-121l-58 73l-58 -73h-117zM74 700h412v-110h-290v-186h290v-108h-290v-186h298v-110h-420v700z" />
    <glyph glyph-name="Edieresis" unicode="&#xcb;" horiz-adv-x="536" 
d="M316 817q0 28 19 47.5t49 19.5t51 -19.5t21 -47.5q0 -27 -21 -45.5t-51 -18.5t-49 18.5t-19 45.5zM98 817q0 28 19 47.5t49 19.5t51 -19.5t21 -47.5q0 -27 -21 -45.5t-51 -18.5t-49 18.5t-19 45.5zM74 700h412v-110h-290v-186h290v-108h-290v-186h298v-110h-420v700z" />
    <glyph glyph-name="Igrave" unicode="&#xcc;" horiz-adv-x="274" 
d="M187 755h-98l-165 140h162zM199 700v-700h-124v700h124z" />
    <glyph glyph-name="Iacute" unicode="&#xcd;" horiz-adv-x="274" 
d="M188 755h-100l101 140h164zM199 700v-700h-124v700h124z" />
    <glyph glyph-name="Icircumflex" unicode="&#xce;" horiz-adv-x="274" 
d="M-40 756l114 140h127l113 -140h-121l-58 73l-58 -73h-117zM199 700v-700h-124v700h124z" />
    <glyph glyph-name="Idieresis" unicode="&#xcf;" horiz-adv-x="274" 
d="M176 817q0 28 19 47.5t49 19.5t51 -19.5t21 -47.5q0 -27 -21 -45.5t-51 -18.5t-49 18.5t-19 45.5zM-42 817q0 28 19 47.5t49 19.5t51 -19.5t21 -47.5q0 -27 -21 -45.5t-51 -18.5t-49 18.5t-19 45.5zM199 700v-700h-124v700h124z" />
    <glyph glyph-name="Ntilde" unicode="&#xd1;" horiz-adv-x="758" 
d="M433 840q21 0 28.5 8t10.5 29h93q-9 -125 -113 -125q-33 0 -70.5 13t-56.5 13q-21 0 -28.5 -8t-10.5 -29h-93q9 125 113 125q30 0 70.5 -13t56.5 -13zM550 0l-284 410q-32 45 -71 115h-2q5 -67 5 -113v-412h-124v700h134l285 -407q27 -39 70 -115h2q-5 68 -5 113v409h124
v-700h-134z" />
    <glyph glyph-name="Ograve" unicode="&#xd2;" horiz-adv-x="836" 
d="M463 755h-98l-165 140h162zM41 350q0 152 107.5 258.5t269.5 106.5q164 0 270.5 -106t106.5 -259t-106.5 -259t-270.5 -106q-162 0 -269.5 106.5t-107.5 258.5zM170 350q0 -106 68.5 -178.5t179.5 -72.5q112 0 180 72t68 179t-68 179t-180 72q-111 0 -179.5 -72.5
t-68.5 -178.5z" />
    <glyph glyph-name="Oacute" unicode="&#xd3;" horiz-adv-x="836" 
d="M461 755h-100l101 140h164zM41 350q0 152 107.5 258.5t269.5 106.5q164 0 270.5 -106t106.5 -259t-106.5 -259t-270.5 -106q-162 0 -269.5 106.5t-107.5 258.5zM170 350q0 -106 68.5 -178.5t179.5 -72.5q112 0 180 72t68 179t-68 179t-180 72q-111 0 -179.5 -72.5
t-68.5 -178.5z" />
    <glyph glyph-name="Ocircumflex" unicode="&#xd4;" horiz-adv-x="836" 
d="M241 756l114 140h127l113 -140h-121l-58 73l-58 -73h-117zM41 350q0 152 107.5 258.5t269.5 106.5q164 0 270.5 -106t106.5 -259t-106.5 -259t-270.5 -106q-162 0 -269.5 106.5t-107.5 258.5zM170 350q0 -106 68.5 -178.5t179.5 -72.5q112 0 180 72t68 179t-68 179
t-180 72q-111 0 -179.5 -72.5t-68.5 -178.5z" />
    <glyph glyph-name="Otilde" unicode="&#xd5;" horiz-adv-x="836" 
d="M472 840q21 0 28.5 8t10.5 29h93q-9 -125 -113 -125q-33 0 -70.5 13t-56.5 13q-21 0 -28.5 -8t-10.5 -29h-93q9 125 113 125q30 0 70.5 -13t56.5 -13zM41 350q0 152 107.5 258.5t269.5 106.5q164 0 270.5 -106t106.5 -259t-106.5 -259t-270.5 -106q-162 0 -269.5 106.5
t-107.5 258.5zM170 350q0 -106 68.5 -178.5t179.5 -72.5q112 0 180 72t68 179t-68 179t-180 72q-111 0 -179.5 -72.5t-68.5 -178.5z" />
    <glyph glyph-name="Odieresis" unicode="&#xd6;" horiz-adv-x="836" 
d="M457 817q0 28 19 47.5t49 19.5t51 -19.5t21 -47.5q0 -27 -21 -45.5t-51 -18.5t-49 18.5t-19 45.5zM239 817q0 28 19 47.5t49 19.5t51 -19.5t21 -47.5q0 -27 -21 -45.5t-51 -18.5t-49 18.5t-19 45.5zM41 350q0 152 107.5 258.5t269.5 106.5q164 0 270.5 -106t106.5 -259
t-106.5 -259t-270.5 -106q-162 0 -269.5 106.5t-107.5 258.5zM170 350q0 -106 68.5 -178.5t179.5 -72.5q112 0 180 72t68 179t-68 179t-180 72q-111 0 -179.5 -72.5t-68.5 -178.5z" />
    <glyph glyph-name="multiply" unicode="&#xd7;" horiz-adv-x="588" 
d="M377 349l178 -178l-81 -81l-180 180l-180 -180l-81 81l177 179l-177 177l81 81l180 -180l180 180l81 -81z" />
    <glyph glyph-name="Oslash" unicode="&#xd8;" horiz-adv-x="836" 
d="M41 350q0 152 107.5 258.5t269.5 106.5q101 0 184 -44l83 104h143l-135 -171q102 -104 102 -254q0 -153 -106.5 -259t-270.5 -106q-96 0 -178 41l-79 -101h-153l136 171q-103 105 -103 254zM170 350q0 -92 51 -158l307 386q-53 23 -110 23q-111 0 -179.5 -72.5
t-68.5 -178.5zM666 350q0 90 -49 156l-304 -386q47 -21 105 -21q112 0 180 72t68 179z" />
    <glyph glyph-name="Ugrave" unicode="&#xd9;" horiz-adv-x="651" 
d="M385 755h-98l-165 140h162zM64 232v468h122v-469q0 -62 40 -98t99 -36t99 36t40 98v469h123v-468q0 -110 -75 -178t-187 -68q-111 0 -186 68t-75 178z" />
    <glyph glyph-name="Uacute" unicode="&#xda;" horiz-adv-x="651" 
d="M365 755h-100l101 140h164zM64 232v468h122v-469q0 -62 40 -98t99 -36t99 36t40 98v469h123v-468q0 -110 -75 -178t-187 -68q-111 0 -186 68t-75 178z" />
    <glyph glyph-name="Ucircumflex" unicode="&#xdb;" horiz-adv-x="651" 
d="M148 756l114 140h127l113 -140h-121l-58 73l-58 -73h-117zM64 232v468h122v-469q0 -62 40 -98t99 -36t99 36t40 98v469h123v-468q0 -110 -75 -178t-187 -68q-111 0 -186 68t-75 178z" />
    <glyph glyph-name="Udieresis" unicode="&#xdc;" horiz-adv-x="651" 
d="M364 817q0 28 19 47.5t49 19.5t51 -19.5t21 -47.5q0 -27 -21 -45.5t-51 -18.5t-49 18.5t-19 45.5zM146 817q0 28 19 47.5t49 19.5t51 -19.5t21 -47.5q0 -27 -21 -45.5t-51 -18.5t-49 18.5t-19 45.5zM64 232v468h122v-469q0 -62 40 -98t99 -36t99 36t40 98v469h123v-468
q0 -110 -75 -178t-187 -68q-111 0 -186 68t-75 178z" />
    <glyph glyph-name="germandbls" unicode="&#xdf;" horiz-adv-x="663" 
d="M410 296h-147v100l79 108l69 86v2q-38 -2 -96 -2h-119v-590h-122v700h472v-113l-141 -185h9q87 0 146.5 -57t59.5 -141q0 -86 -59.5 -145t-146.5 -59h-149v110h145q35 0 59.5 28.5t24.5 66.5q0 37 -24.5 64t-59.5 27z" />
    <glyph glyph-name="agrave" unicode="&#xe0;" horiz-adv-x="539" 
d="M310 555h-98l-165 140h162zM245 320q73 0 125 -24v17q0 54 -21 75q-29 29 -86 29q-43 0 -84 -22q-26 -15 -55 -45l-67 70q22 30 67 58q63 37 144 37q110 0 172 -62q49 -49 49 -135v-318h-111v49q-23 -27 -64 -45.5t-86 -18.5q-80 0 -134 45.5t-54 123.5q0 72 59 119
t146 47zM256 88q39 0 78 26t39 57v30q-46 32 -111 32q-40 0 -69 -18t-29 -54q0 -35 24.5 -54t67.5 -19z" />
    <glyph glyph-name="aacute" unicode="&#xe1;" horiz-adv-x="539" 
d="M316 555h-100l101 140h164zM245 320q73 0 125 -24v17q0 54 -21 75q-29 29 -86 29q-43 0 -84 -22q-26 -15 -55 -45l-67 70q22 30 67 58q63 37 144 37q110 0 172 -62q49 -49 49 -135v-318h-111v49q-23 -27 -64 -45.5t-86 -18.5q-80 0 -134 45.5t-54 123.5q0 72 59 119
t146 47zM256 88q39 0 78 26t39 57v30q-46 32 -111 32q-40 0 -69 -18t-29 -54q0 -35 24.5 -54t67.5 -19z" />
    <glyph glyph-name="acircumflex" unicode="&#xe2;" horiz-adv-x="539" 
d="M92 556l114 140h127l113 -140h-121l-58 73l-58 -73h-117zM245 320q73 0 125 -24v17q0 54 -21 75q-29 29 -86 29q-43 0 -84 -22q-26 -15 -55 -45l-67 70q22 30 67 58q63 37 144 37q110 0 172 -62q49 -49 49 -135v-318h-111v49q-23 -27 -64 -45.5t-86 -18.5
q-80 0 -134 45.5t-54 123.5q0 72 59 119t146 47zM256 88q39 0 78 26t39 57v30q-46 32 -111 32q-40 0 -69 -18t-29 -54q0 -35 24.5 -54t67.5 -19z" />
    <glyph glyph-name="atilde" unicode="&#xe3;" horiz-adv-x="539" 
d="M325 640q21 0 28.5 8t10.5 29h93q-9 -125 -113 -125q-33 0 -70.5 13t-56.5 13q-21 0 -28.5 -8t-10.5 -29h-93q9 125 113 125q30 0 70.5 -13t56.5 -13zM245 320q73 0 125 -24v17q0 54 -21 75q-29 29 -86 29q-43 0 -84 -22q-26 -15 -55 -45l-67 70q22 30 67 58
q63 37 144 37q110 0 172 -62q49 -49 49 -135v-318h-111v49q-23 -27 -64 -45.5t-86 -18.5q-80 0 -134 45.5t-54 123.5q0 72 59 119t146 47zM256 88q39 0 78 26t39 57v30q-46 32 -111 32q-40 0 -69 -18t-29 -54q0 -35 24.5 -54t67.5 -19z" />
    <glyph glyph-name="adieresis" unicode="&#xe4;" horiz-adv-x="539" 
d="M312 617q0 28 19 47.5t49 19.5t51 -19.5t21 -47.5q0 -27 -21 -45.5t-51 -18.5t-49 18.5t-19 45.5zM94 617q0 28 19 47.5t49 19.5t51 -19.5t21 -47.5q0 -27 -21 -45.5t-51 -18.5t-49 18.5t-19 45.5zM245 320q73 0 125 -24v17q0 54 -21 75q-29 29 -86 29q-43 0 -84 -22
q-26 -15 -55 -45l-67 70q22 30 67 58q63 37 144 37q110 0 172 -62q49 -49 49 -135v-318h-111v49q-23 -27 -64 -45.5t-86 -18.5q-80 0 -134 45.5t-54 123.5q0 72 59 119t146 47zM256 88q39 0 78 26t39 57v30q-46 32 -111 32q-40 0 -69 -18t-29 -54q0 -35 24.5 -54t67.5 -19z
" />
    <glyph glyph-name="aring" unicode="&#xe5;" horiz-adv-x="539" 
d="M388 650q0 -45 -34 -78.5t-85 -33.5t-85 33.5t-34 78.5q0 46 34 79.5t85 33.5t85 -33.5t34 -79.5zM217 651q0 -22 14 -37t38 -15t38 15t14 37q0 21 -14 36t-38 15t-38 -15t-14 -36zM245 320q73 0 125 -24v17q0 54 -21 75q-29 29 -86 29q-43 0 -84 -22q-26 -15 -55 -45
l-67 70q22 30 67 58q63 37 144 37q110 0 172 -62q49 -49 49 -135v-318h-111v49q-23 -27 -64 -45.5t-86 -18.5q-80 0 -134 45.5t-54 123.5q0 72 59 119t146 47zM256 88q39 0 78 26t39 57v30q-46 32 -111 32q-40 0 -69 -18t-29 -54q0 -35 24.5 -54t67.5 -19z" />
    <glyph glyph-name="ccedilla" unicode="&#xe7;" horiz-adv-x="521" 
d="M167 -202l26 67q32 -16 71 -16t39 26q0 11 -13.5 19.5t-35.5 8.5q-15 0 -24 -2l-11 27l43 60q-105 14 -168.5 87.5t-63.5 174.5q0 112 77 188.5t200 76.5q64 0 118.5 -26.5t85.5 -67.5l-82 -74q-49 60 -128 60q-65 0 -105.5 -44t-40.5 -111t43.5 -112.5t109.5 -45.5
q77 0 135 66l77 -77q-71 -82 -174 -95l-19 -41q31 -7 52 -29t21 -52q0 -44 -38 -68t-87 -24q-60 0 -108 24z" />
    <glyph glyph-name="egrave" unicode="&#xe8;" horiz-adv-x="553" 
d="M334 555h-98l-165 140h162zM520 211h-361q6 -48 39 -81q42 -42 112 -42q73 0 136 63l66 -78q-91 -88 -214 -88q-124 0 -196 76t-72 189q0 114 67 189.5t184 75.5q115 0 178.5 -72.5t63.5 -192.5q0 -20 -3 -39zM282 417q-53 0 -87 -30t-41 -77h250q-5 45 -37.5 76
t-84.5 31z" />
    <glyph glyph-name="eacute" unicode="&#xe9;" horiz-adv-x="553" 
d="M327 555h-100l101 140h164zM520 211h-361q6 -48 39 -81q42 -42 112 -42q73 0 136 63l66 -78q-91 -88 -214 -88q-124 0 -196 76t-72 189q0 114 67 189.5t184 75.5q115 0 178.5 -72.5t63.5 -192.5q0 -20 -3 -39zM282 417q-53 0 -87 -30t-41 -77h250q-5 45 -37.5 76
t-84.5 31z" />
    <glyph glyph-name="ecircumflex" unicode="&#xea;" horiz-adv-x="553" 
d="M105 556l114 140h127l113 -140h-121l-58 73l-58 -73h-117zM520 211h-361q6 -48 39 -81q42 -42 112 -42q73 0 136 63l66 -78q-91 -88 -214 -88q-124 0 -196 76t-72 189q0 114 67 189.5t184 75.5q115 0 178.5 -72.5t63.5 -192.5q0 -20 -3 -39zM282 417q-53 0 -87 -30
t-41 -77h250q-5 45 -37.5 76t-84.5 31z" />
    <glyph glyph-name="edieresis" unicode="&#xeb;" horiz-adv-x="553" 
d="M318 617q0 28 19 47.5t49 19.5t51 -19.5t21 -47.5q0 -27 -21 -45.5t-51 -18.5t-49 18.5t-19 45.5zM100 617q0 28 19 47.5t49 19.5t51 -19.5t21 -47.5q0 -27 -21 -45.5t-51 -18.5t-49 18.5t-19 45.5zM520 211h-361q6 -48 39 -81q42 -42 112 -42q73 0 136 63l66 -78
q-91 -88 -214 -88q-124 0 -196 76t-72 189q0 114 67 189.5t184 75.5q115 0 178.5 -72.5t63.5 -192.5q0 -20 -3 -39zM282 417q-53 0 -87 -30t-41 -77h250q-5 45 -37.5 76t-84.5 31z" />
    <glyph glyph-name="igrave" unicode="&#xec;" horiz-adv-x="244" 
d="M174 555h-98l-165 140h162zM63 0v500h118v-500h-118z" />
    <glyph glyph-name="iacute" unicode="&#xed;" horiz-adv-x="244" 
d="M168 555h-100l101 140h164zM63 0v500h118v-500h-118z" />
    <glyph glyph-name="icircumflex" unicode="&#xee;" horiz-adv-x="244" 
d="M-55 556l114 140h127l113 -140h-121l-58 73l-58 -73h-117zM63 0v500h118v-500h-118z" />
    <glyph glyph-name="idieresis" unicode="&#xef;" horiz-adv-x="244" 
d="M161 617q0 28 19 47.5t49 19.5t51 -19.5t21 -47.5q0 -27 -21 -45.5t-51 -18.5t-49 18.5t-19 45.5zM-57 617q0 28 19 47.5t49 19.5t51 -19.5t21 -47.5q0 -27 -21 -45.5t-51 -18.5t-49 18.5t-19 45.5zM63 0v500h118v-500h-118z" />
    <glyph glyph-name="ntilde" unicode="&#xf1;" horiz-adv-x="567" 
d="M346 640q21 0 28.5 8t10.5 29h93q-9 -125 -113 -125q-33 0 -70.5 13t-56.5 13q-21 0 -28.5 -8t-10.5 -29h-93q9 125 113 125q30 0 70.5 -13t56.5 -13zM517 336v-336h-118v311q0 48 -26 74.5t-70 26.5q-57 0 -92.5 -41.5t-35.5 -112.5v-258h-118v500h114v-63q51 78 160 78
q93 0 139.5 -51t46.5 -128z" />
    <glyph glyph-name="ograve" unicode="&#xf2;" horiz-adv-x="596" 
d="M351 555h-98l-165 140h162zM566 250q0 -110 -76.5 -187.5t-191.5 -77.5t-191.5 77.5t-76.5 187.5t76.5 187.5t191.5 77.5t191.5 -77.5t76.5 -187.5zM152 250q0 -66 41.5 -112t104.5 -46t104.5 46t41.5 112t-41.5 112t-104.5 46t-104.5 -46t-41.5 -112z" />
    <glyph glyph-name="oacute" unicode="&#xf3;" horiz-adv-x="596" 
d="M344 555h-100l101 140h164zM566 250q0 -110 -76.5 -187.5t-191.5 -77.5t-191.5 77.5t-76.5 187.5t76.5 187.5t191.5 77.5t191.5 -77.5t76.5 -187.5zM152 250q0 -66 41.5 -112t104.5 -46t104.5 46t41.5 112t-41.5 112t-104.5 46t-104.5 -46t-41.5 -112z" />
    <glyph glyph-name="ocircumflex" unicode="&#xf4;" horiz-adv-x="596" 
d="M121 556l114 140h127l113 -140h-121l-58 73l-58 -73h-117zM566 250q0 -110 -76.5 -187.5t-191.5 -77.5t-191.5 77.5t-76.5 187.5t76.5 187.5t191.5 77.5t191.5 -77.5t76.5 -187.5zM152 250q0 -66 41.5 -112t104.5 -46t104.5 46t41.5 112t-41.5 112t-104.5 46t-104.5 -46
t-41.5 -112z" />
    <glyph glyph-name="otilde" unicode="&#xf5;" horiz-adv-x="596" 
d="M352 640q21 0 28.5 8t10.5 29h93q-9 -125 -113 -125q-33 0 -70.5 13t-56.5 13q-21 0 -28.5 -8t-10.5 -29h-93q9 125 113 125q30 0 70.5 -13t56.5 -13zM566 250q0 -110 -76.5 -187.5t-191.5 -77.5t-191.5 77.5t-76.5 187.5t76.5 187.5t191.5 77.5t191.5 -77.5t76.5 -187.5
zM152 250q0 -66 41.5 -112t104.5 -46t104.5 46t41.5 112t-41.5 112t-104.5 46t-104.5 -46t-41.5 -112z" />
    <glyph glyph-name="odieresis" unicode="&#xf6;" horiz-adv-x="596" 
d="M337 617q0 28 19 47.5t49 19.5t51 -19.5t21 -47.5q0 -27 -21 -45.5t-51 -18.5t-49 18.5t-19 45.5zM119 617q0 28 19 47.5t49 19.5t51 -19.5t21 -47.5q0 -27 -21 -45.5t-51 -18.5t-49 18.5t-19 45.5zM566 250q0 -110 -76.5 -187.5t-191.5 -77.5t-191.5 77.5t-76.5 187.5
t76.5 187.5t191.5 77.5t191.5 -77.5t76.5 -187.5zM152 250q0 -66 41.5 -112t104.5 -46t104.5 46t41.5 112t-41.5 112t-104.5 46t-104.5 -46t-41.5 -112z" />
    <glyph glyph-name="divide" unicode="&#xf7;" horiz-adv-x="766" 
d="M308 544q0 32 22 53.5t56 21.5q32 0 55.5 -22t23.5 -53q0 -30 -23 -51t-56 -21q-34 0 -56 20.5t-22 51.5zM112 404h542v-108h-542v108zM308 150q0 32 22 53.5t56 21.5q32 0 55.5 -22t23.5 -53q0 -30 -23 -51t-56 -21q-34 0 -56 20.5t-22 51.5z" />
    <glyph glyph-name="oslash" unicode="&#xf8;" horiz-adv-x="596" 
d="M566 250q0 -110 -76.5 -187.5t-191.5 -77.5q-63 0 -115 23l-65 -83h-149l122 154q-61 72 -61 171q0 110 76.5 187.5t191.5 77.5q65 0 119 -26l67 85h143l-121 -155q60 -73 60 -169zM152 250q0 -39 16 -74l178 224q-24 8 -48 8q-63 0 -104.5 -46t-41.5 -112zM444 250
q0 36 -15 71l-175 -223q20 -6 44 -6q63 0 104.5 46t41.5 112z" />
    <glyph glyph-name="ugrave" unicode="&#xf9;" horiz-adv-x="567" 
d="M340 555h-98l-165 140h162zM50 164v336h118v-311q0 -48 26 -74.5t70 -26.5q57 0 92.5 41.5t35.5 112.5v258h118v-500h-114v63q-51 -78 -160 -78q-93 0 -139.5 51t-46.5 128z" />
    <glyph glyph-name="uacute" unicode="&#xfa;" horiz-adv-x="567" 
d="M324 555h-100l101 140h164zM50 164v336h118v-311q0 -48 26 -74.5t70 -26.5q57 0 92.5 41.5t35.5 112.5v258h118v-500h-114v63q-51 -78 -160 -78q-93 0 -139.5 51t-46.5 128z" />
    <glyph glyph-name="ucircumflex" unicode="&#xfb;" horiz-adv-x="567" 
d="M106 556l114 140h127l113 -140h-121l-58 73l-58 -73h-117zM50 164v336h118v-311q0 -48 26 -74.5t70 -26.5q57 0 92.5 41.5t35.5 112.5v258h118v-500h-114v63q-51 -78 -160 -78q-93 0 -139.5 51t-46.5 128z" />
    <glyph glyph-name="udieresis" unicode="&#xfc;" horiz-adv-x="567" 
d="M318 617q0 28 19 47.5t49 19.5t51 -19.5t21 -47.5q0 -27 -21 -45.5t-51 -18.5t-49 18.5t-19 45.5zM100 617q0 28 19 47.5t49 19.5t51 -19.5t21 -47.5q0 -27 -21 -45.5t-51 -18.5t-49 18.5t-19 45.5zM50 164v336h118v-311q0 -48 26 -74.5t70 -26.5q57 0 92.5 41.5
t35.5 112.5v258h118v-500h-114v63q-51 -78 -160 -78q-93 0 -139.5 51t-46.5 128z" />
    <glyph glyph-name="ydieresis" unicode="&#xff;" horiz-adv-x="530" 
d="M308 617q0 28 19 47.5t49 19.5t51 -19.5t21 -47.5q0 -27 -21 -45.5t-51 -18.5t-49 18.5t-19 45.5zM90 617q0 28 19 47.5t49 19.5t51 -19.5t21 -47.5q0 -27 -21 -45.5t-51 -18.5t-49 18.5t-19 45.5zM258 -200h-130l78 202l-207 498h133l103 -267q13 -33 34 -113h2
q21 75 35 113l100 267h125z" />
    <glyph glyph-name="dotlessi" unicode="&#x131;" horiz-adv-x="244" 
d="M63 0v500h118v-500h-118z" />
    <glyph glyph-name="Ydieresis" unicode="&#x178;" horiz-adv-x="663" 
d="M370 817q0 28 19 47.5t49 19.5t51 -19.5t21 -47.5q0 -27 -21 -45.5t-51 -18.5t-49 18.5t-19 45.5zM152 817q0 28 19 47.5t49 19.5t51 -19.5t21 -47.5q0 -27 -21 -45.5t-51 -18.5t-49 18.5t-19 45.5zM392 308v-308h-122v308l-279 392h142l141 -201q30 -44 58 -89
q33 53 59 90l141 200h139z" />
    <glyph glyph-name="circumflex" unicode="&#x2c6;" 
d="M23 756l114 140h127l113 -140h-121l-58 73l-58 -73h-117z" />
    <glyph glyph-name="caron" unicode="&#x2c7;" 
d="M377 896l-114 -140h-127l-113 140h121l58 -73l58 73h117z" />
    <glyph glyph-name="breve" unicode="&#x2d8;" 
d="M200 756q-144 0 -154 127h101q3 -23 14 -34t39 -11t39.5 11t14.5 34h101q-5 -66 -47 -96.5t-108 -30.5z" />
    <glyph glyph-name="dotaccent" unicode="&#x2d9;" 
d="M130 817q0 29 19.5 48.5t49.5 19.5t49.5 -19.5t19.5 -48.5t-19.5 -48.5t-49.5 -19.5t-49.5 19.5t-19.5 48.5z" />
    <glyph glyph-name="ring" unicode="&#x2da;" 
d="M320 850q0 -45 -34 -78.5t-85 -33.5t-85 33.5t-34 78.5q0 46 34 79.5t85 33.5t85 -33.5t34 -79.5zM149 851q0 -22 14 -37t38 -15t38 15t14 37q0 21 -14 36t-38 15t-38 -15t-14 -36z" />
    <glyph glyph-name="ogonek" unicode="&#x2db;" 
d="M213 -226q-61 0 -93 31.5t-32 79.5q0 65 55 115h121q-41 -20 -63 -48.5t-22 -55.5q0 -47 46 -47q33 0 64 18l25 -69q-46 -24 -101 -24z" />
    <glyph glyph-name="tilde" unicode="&#x2dc;" 
d="M259 840q21 0 28.5 8t10.5 29h93q-9 -125 -113 -125q-33 0 -70.5 13t-56.5 13q-21 0 -28.5 -8t-10.5 -29h-93q9 125 113 125q30 0 70.5 -13t56.5 -13z" />
    <glyph glyph-name="hungarumlaut" unicode="&#x2dd;" 
d="M259 755h-88l101 140h152zM85 755h-88l101 140h152z" />
    <glyph glyph-name="endash" unicode="&#x2013;" horiz-adv-x="629" 
d="M28 404h573v-108h-573v108z" />
    <glyph glyph-name="emdash" unicode="&#x2014;" horiz-adv-x="829" 
d="M28 404h773v-108h-773v108z" />
    <glyph glyph-name="quoteleft" unicode="&#x2018;" horiz-adv-x="334" 
d="M190 700h82l-72 -259h-142z" />
    <glyph glyph-name="quoteright" unicode="&#x2019;" horiz-adv-x="334" 
d="M140 441h-82l72 259h142z" />
    <glyph glyph-name="quotesinglbase" unicode="&#x201a;" horiz-adv-x="334" 
d="M140 -139h-82l72 259h142z" />
    <glyph glyph-name="quotedblleft" unicode="&#x201c;" horiz-adv-x="514" 
d="M378 700h80l-72 -259h-140zM191 700h80l-72 -259h-140z" />
    <glyph glyph-name="quotedblright" unicode="&#x201d;" horiz-adv-x="514" 
d="M323 441h-80l72 259h140zM136 441h-80l72 259h140z" />
    <glyph glyph-name="quotedblbase" unicode="&#x201e;" horiz-adv-x="514" 
d="M323 -139h-82l72 259h142zM137 -139h-82l72 259h142z" />
    <glyph glyph-name="dagger" unicode="&#x2020;" horiz-adv-x="366" 
d="M126 717h114l-37 -203l131 37v-109l-131 37l37 -152l-39 -402h-36l-39 402l37 152l-131 -37v109l131 -37z" />
    <glyph glyph-name="bullet" unicode="&#x2022;" horiz-adv-x="698" 
d="M139 352q0 85 60.5 143.5t147.5 58.5q90 0 150.5 -58.5t60.5 -143.5q0 -84 -60 -143t-150 -59q-89 0 -149 58.5t-60 143.5z" />
    <glyph glyph-name="ellipsis" unicode="&#x2026;" horiz-adv-x="1003" 
d="M757 58q0 32 22 53.5t56 21.5q32 0 55.5 -22t23.5 -53q0 -30 -23 -51t-56 -21q-34 0 -56 20.5t-22 51.5zM423 58q0 32 22 53.5t56 21.5q32 0 55.5 -22t23.5 -53q0 -30 -23 -51t-56 -21q-34 0 -56 20.5t-22 51.5zM89 58q0 32 22 53.5t56 21.5q32 0 55.5 -22t23.5 -53
q0 -30 -23 -51t-56 -21q-34 0 -56 20.5t-22 51.5z" />
    <glyph glyph-name="perthousand" unicode="&#x2030;" horiz-adv-x="1081" 
d="M16 531q0 79 45 131.5t115 52.5q69 0 114 -52.5t45 -131.5t-44.5 -130.5t-114.5 -51.5t-115 51.5t-45 130.5zM25 0l561 700h114l-556 -700h-119zM113 531q0 -43 16 -70t47 -27t47 27t16 70q0 44 -16 71t-47 27t-47 -27t-16 -71zM750 167q0 79 45 131.5t115 52.5
q69 0 114 -52.5t45 -131.5t-44.5 -130.5t-114.5 -51.5t-115 51.5t-45 130.5zM393 167q0 79 45 131.5t115 52.5q69 0 114 -52.5t45 -131.5t-44.5 -130.5t-114.5 -51.5t-115 51.5t-45 130.5zM847 167q0 -43 16 -70t47 -27t47 27t16 70q0 44 -16 71t-47 27t-47 -27t-16 -71z
M490 167q0 -43 16 -70t47 -27t47 27t16 70q0 44 -16 71t-47 27t-47 -27t-16 -71z" />
    <glyph glyph-name="guilsinglleft" unicode="&#x2039;" horiz-adv-x="356" 
d="M193 121l-172 220l171 220h142l-171 -220l172 -220h-142z" />
    <glyph glyph-name="guilsinglright" unicode="&#x203a;" horiz-adv-x="356" 
d="M335 341l-172 -220h-142l172 220l-171 220h142z" />
    <glyph glyph-name="fraction" unicode="&#x2044;" horiz-adv-x="792" 
d="M806 775l-667 -850h-153l677 850h143z" />
    <glyph glyph-name="Euro" unicode="&#x20ac;" horiz-adv-x="919" 
d="M68 391l37 87h82q39 105 133.5 170.5t208.5 65.5q179 0 283 -114l-72 -83q-92 83 -205 83q-67 0 -122 -33t-87 -89h383l-39 -87h-374q-3 -21 -3 -41q0 -23 3 -44h331l-39 -86h-260q33 -55 88 -87.5t121 -32.5q112 0 203 83l72 -83q-104 -114 -283 -114
q-115 0 -208.5 64.5t-133.5 169.5h-179l37 86h122q-3 21 -3 44q0 13 2 41h-98z" />
    <glyph glyph-name="trademark" unicode="&#x2122;" horiz-adv-x="1012" 
d="M670 543l112 157h87v-358h-81v187q0 40 2 61h-2q-18 -34 -36 -60l-57 -81h-51l-57 81q-15 22 -35 60h-2q2 -24 2 -62v-186h-82v358h87zM112 700h299v-74h-107v-284h-86v284h-106v74z" />
    <glyph glyph-name="minus" unicode="&#x2212;" horiz-adv-x="628" 
d="M38 404h552v-108h-552v108z" />
    <glyph glyph-name="approxequal" unicode="&#x2248;" horiz-adv-x="800" 
d="M512 371q-46 0 -116.5 34t-108.5 34q-14 0 -27.5 -5t-26 -15t-20 -17.5t-19 -21.5t-14.5 -17l-71 76q2 2 19.5 21t25 26t26 23t32.5 23t34.5 13.5t41.5 6.5q51 0 116.5 -34t108.5 -34q14 0 27 4.5t26 15.5t19.5 17.5t19 21.5t14.5 17l71 -76q-2 -3 -16 -18.5t-20.5 -21.5
t-21 -20t-26 -21t-27.5 -16t-32.5 -12.5t-34.5 -3.5zM512 156q-46 0 -116.5 34t-108.5 34q-14 0 -27.5 -5t-26 -15t-20 -17.5t-19 -21.5t-14.5 -17l-71 76q2 2 19.5 21t25 26t26 23t32.5 23t34.5 13.5t41.5 6.5q51 0 116.5 -34t108.5 -34q14 0 27 4.5t26 15.5t19.5 17.5
t19 21.5t14.5 17l71 -76q-2 -3 -16 -18.5t-20.5 -21.5t-21 -20t-26 -21t-27.5 -16t-32.5 -12.5t-34.5 -3.5z" />
    <glyph glyph-name="mark" horiz-adv-x="840" 
d="M789 384q5 -90 -16 -174t-68 -135q-43 -48 -122 -69.5t-163 -21.5t-163 21.5t-122 69.5q-47 51 -68 135t-16 174q10 179 105 260q43 36 116.5 54t147.5 18q75 0 148.5 -18t116.5 -54q95 -83 104 -260zM399 685v-266h42v266q-13 1 -21 1t-21 -1zM739 273q18 211 -49 307
q-40 59 -111 84q-26 9 -58.5 14t-51.5 6l-19 1q67 -159 95 -242q2 -5 9 -26t9.5 -29.5t7.5 -30t9 -46.5q13 -92 24 -264q121 59 135 226zM101 273q14 -167 135 -226q11 172 24 264q9 56 36 132q21 68 94 242q-70 -1 -128 -21q-71 -25 -113 -84q-66 -97 -48 -307zM596 44
q-22 59 -71.5 171t-80.5 164h-48q-31 -52 -80.5 -164t-71.5 -171q61 -26 176 -30q110 4 176 30z" />
    <glyph glyph-name="logo_vert" horiz-adv-x="1590" 
d="M1012 540q7 -138 -56 -207q-56 -61 -190 -61q-135 0 -191 61q-63 69 -56 207q6 119 70 173q56 49 177 49q120 0 176 -49q64 -54 70 -173zM979 465q14 140 -33 206q-28 39 -74 56q-18 6 -39.5 9.5t-34.5 3.5l-12 1l63 -162q2 -6 7.5 -22t9.5 -30.5t7 -35.5
q11 -108 16 -177q80 38 90 151zM752 741l-1 -178h29l-1 178h-27zM552 465q10 -113 90 -151q8 118 16 177q5 33 24 88q9 27 63 162q-46 -1 -86 -14q-48 -17 -75 -56q-46 -66 -32 -206zM883 312q-13 34 -46.5 111.5t-54.5 113.5h-33q-22 -37 -56.5 -116t-44.5 -109
q40 -18 117 -20q75 2 118 20zM1348 156h59l133 -217h-63l-99 165l-52 -88h84l26 -40h-133l-23 -37h-63zM993 -61h-54v217h199q33 0 51.5 -24t15 -54t-27.5 -45q19 -11 26 -44l1 -50h-52l-2 44q-1 15 -9.5 24t-22.5 9h-102l-10 46h118q28 0 28 24t-28 24h-132zM823 -61h-96
q-41 1 -61 22.5t-18 59.5v135h53v-145q0 -13 6 -20t12 -8t18 -2h76q13 1 19 2t12 8t6 20v145h53v-134q2 -82 -80 -83zM368 19v57q3 82 84 80h164v-44h-164q-18 0 -23.5 -9.5t-6.5 -26.5v-56q1 -12 2.5 -18.5t8 -12.5t19.5 -6h164v-44h-164q-81 -3 -84 80zM181 156h59
l132 -217h-63l-98 165l-52 -88h84l26 -40h-133l-24 -37h-62z" />
    <glyph glyph-name="logo_horiz" horiz-adv-x="2234" 
d="M364 352q5 -87 -36 -131q-34 -38 -120 -38h-1q-86 0 -120 38q-40 43 -36 131q4 74 44 110q37 31 113 31t111 -31q41 -34 45 -110zM343 305q9 87 -21 130q-18 25 -47 35q-11 4 -25 6.5t-22 3.5h-8q32 -78 40 -103q13 -36 16 -56q7 -55 9 -112q52 25 58 96zM199 480v-113
h17v113h-17zM72 305q6 -71 57 -96q6 79 10 112q3 20 16 56q0 1 39 103q-29 -1 -54 -10q-29 -10 -47 -35q-30 -43 -21 -130zM1957 468h70l157 -261h-74l-119 197l-62 -103h101l30 -50h-161l-27 -44h-73zM1529 412v-205h-65v261h240q39 0 61 -29t17.5 -65t-32.5 -55
q27 -10 31 -51l2 -61h-63l-2 54q-2 17 -12 27.5t-27 10.5h-122l-12 54h140q35 0 35 30q0 29 -35 29h-156zM1327 207h-117q-95 0 -95 100v161h64v-173q0 -37 44 -37h92q43 0 44 37v173h64v-161q0 -100 -96 -100zM844 370v-65q2 -44 36 -44h197v-54h-198q-99 0 -100 96v69
q1 96 100 96h198v-53h-197q-36 0 -36 -45zM555 468h71l157 -261h-74l-119 197l-62 -103h101l30 -50h-161l-27 -44h-73zM282 208q-41 104 -64 142h-21q-22 -38 -64 -142q25 -11 74 -13q42 2 75 13z" />
    <glyph glyph-name="A.alt" horiz-adv-x="720" 
d="M454 430l-329 -430h-153l550 700h125v-700h-122v406q0 84 1 124h-2q-38 -59 -70 -100z" />
    <glyph glyph-name="J.alt" horiz-adv-x="482" 
d="M48 700h367v-559q0 -71 -44.5 -112.5t-109.5 -41.5q-68 0 -114.5 42.5t-46.5 105.5v95h121v-97q0 -19 10.5 -29t26.5 -10q36 0 36 39v457h-246v110z" />
    <glyph glyph-name="V.alt" horiz-adv-x="720" 
d="M199 182l392 518h153l-550 -700h-121v700h126v-518z" />
    <glyph glyph-name="W.alt" horiz-adv-x="978" 
d="M448 172l405 528h149l-550 -700h-117v211h-2q-28 -49 -52 -84l-87 -127h-121v700h122v-416q0 -54 -3 -108h2l140 204h115v-96q0 -56 -3 -112h2z" />
    <glyph glyph-name="Y.alt" horiz-adv-x="640" 
d="M263 322l-261 378h146l187 -276l183 276h146l-478 -700h-141z" />
    </font>
</defs>
</svg>
